<?xml version="1.0" encoding="utf-8"?>
<!-- Generator: Adobe Illustrator 19.1.1, SVG Export Plug-In . SVG Version: 6.00 Build 0)  -->
<svg version="1.1"  xmlns="http://www.w3.org/2000/svg" xmlns:xlink="http://www.w3.org/1999/xlink" x="0px" y="0px"
	 viewBox="0 0 48 48" enable-background="new 0 0 48 48" xml:space="preserve">
<path fill="#1976D2" d="M24,5C13.5,5,5,13.4,5,24s8.5,19,19,19s19-8.4,19-19S34.5,5,24,5z M24,41c-9.3,0-17-7.7-17-17S14.7,7,24,7
	c9.5,0,17,7.7,17,17S33.3,41,24,41z M30,37.7c-1.8,0.8-3.9,1.3-6,1.3c-8.3,0-15-6.7-15-15S15.7,9,24,9c2.6,0,5,0.7,7.2,1.8L14,28v2
	h16V37.7z M34,12.8c3.1,2.7,5,6.7,5,11.2c0,0.7-0.1,1.3-0.1,2H34V12.8z M19,26l11-11v11H19z M37.7,30c-0.9,2-2.2,3.7-3.7,5.2V30
	H37.7z"/>
</svg>
