<?xml version="1.0" encoding="utf-8"?>
<!-- Generator: Adobe Illustrator 19.1.1, SVG Export Plug-In . SVG Version: 6.00 Build 0)  -->
<svg version="1.1"  xmlns="http://www.w3.org/2000/svg" xmlns:xlink="http://www.w3.org/1999/xlink" x="0px" y="0px"
	 viewBox="0 0 48 48" enable-background="new 0 0 48 48" xml:space="preserve">
<circle fill="#FF3D00" cx="24" cy="24" r="18"/>
<path fill="#DD2C00" d="M13.4,39.8l3.4-5.1L15.3,35l-4.6,0.8l2.6-3.8l5.4-8.2L17.3,24l-5.9,1l4.1-4.3L29.6,5.8
	c0.7,0.2,1.4,0.5,2,0.8L17,22l6-1l-8,12l6-1l-5.8,8.8C14.6,40.5,14,40.2,13.4,39.8z M39,12.4C39,12.4,39,12.4,39,12.4l-5.7,1.7
	l-2.1,0.6l3.6-6.2c-0.5-0.4-1.1-0.7-1.7-1.1L27,18l6.9-2L25,28l6-1L16.5,41.5c0.7,0.3,1.4,0.5,2.1,0.7l13.8-13.8l4.4-4.4l-6.1,1
	l-1.1,0.2l6-8L39,12.4z"/>
<path fill="#FFC107" d="M24,8c8.8,0,16,7.2,16,16s-7.2,16-16,16S8,32.8,8,24S15.2,8,24,8 M24,5C13.5,5,5,13.5,5,24s8.5,19,19,19
	s19-8.5,19-19S34.5,5,24,5L24,5z M37,1L17,22l6-1l-8,12l6-1L11,47l20-20l-6,1l8.9-12L27,18L37,1z"/>
<path fill="#D69D0D" d="M29.6,5.8c0.7,0.2,1.4,0.5,2,0.8L29.4,9c-0.7-0.3-1.4-0.5-2.2-0.6L29.6,5.8z M31.7,10
	c0.6,0.3,1.1,0.7,1.7,1.1l1.5-2.6c-0.5-0.4-1.1-0.7-1.7-1.1L31.7,10z M21.1,39.7c-0.8-0.1-1.5-0.3-2.2-0.6l-2.3,2.3
	c0.7,0.3,1.4,0.5,2.1,0.7L21.1,39.7z M16.8,38.3c-0.6-0.3-1.2-0.6-1.7-1l-1.7,2.5c0.6,0.4,1.1,0.7,1.7,1L16.8,38.3z"/>
</svg>
