<?xml version="1.0" encoding="utf-8"?>
<!-- Generator: Adobe Illustrator 21.0.0, SVG Export Plug-In . SVG Version: 6.00 Build 0)  -->
<svg version="1.1" id="Layer_1" xmlns="http://www.w3.org/2000/svg" xmlns:xlink="http://www.w3.org/1999/xlink" x="0px" y="0px"
	 viewBox="0 0 1280 1127" style="enable-background:new 0 0 1280 1127;" xml:space="preserve">
<style type="text/css">
	.st0{fill:#FFFFFF;stroke:#0A0707;stroke-width:8;stroke-miterlimit:10;}
</style>
<g transform="translate(0.000000,1127.000000) scale(0.100000,-0.100000)">
	<path class="st0" d="M7545,9809c-577-793-1071-1471-1096-1506l-46-64l-723,911c-397,501-724,910-726,908c-3-3-112-373-439-1488
		c-75-256-145-496-156-533l-20-68l-357,182c-196,100-546,278-777,397c-540,276-811,414-1395,712c-261,133-680,347-930,475
		s-498,254-550,280l-95,47l36-38c20-22,324-356,675-743c351-388,901-993,1221-1345c320-353,579-642,575-643c-4-2-207-41-452-87
		c-696-133-1960-372-2122-403c-82-15-148-30-147-33c0-5,745-562,1784-1335c222-165,404-303,404-306c1-3-104-78-231-166
		C1482,4622,115,3677,111,3674c-2-2-2-5,0-7s166,14,364,34c1337,141,2879,298,2883,294c5-4-45-183-367-1335c-87-311-157-566-156-568
		c2-2,394,228,872,512c477,283,869,512,870,508c2-4,104-700,228-1546C4929,719,5032,25,5034,23s22,49,44,114s160,462,307,883
		c515,1475,628,1798,742,2128l116,333l31-48c18-27,378-587,801-1246c477-743,771-1193,775-1185c4,7,108,622,231,1365
		c123,744,227,1353,231,1353s552-423,1218-940s1212-940,1213-940c2,0-18,75-45,168c-27,92-123,426-214,742c-92,316-236,816-321,1110
		c-195,679-187,649-182,654c2,3,274-13,604-34c1681-109,2188-141,2191-138c1,2-526,332-1171,732c-997,619-1172,731-1157,741
		c9,6,470,279,1025,605c554,327,1007,597,1007,600s-258,47-573,99c-1562,257-1999,330-2004,334c-2,3,217,337,487,742
		s490,738,488,740c-2,1-73-10-158-25c-171-31-985-179-1799-326c-288-52-526-93-528-90c-4,4,82,1133,204,2679c3,42,4,77,2,77
		S8123,10601,7545,9809z"/>
</g>
</svg>
