<svg xmlns="http://www.w3.org/2000/svg" xmlns:xlink="http://www.w3.org/1999/xlink" viewBox="0 0 288 288" preserveAspectRatio="none">
  <defs>
    <style>
      .a {
        isolation: isolate;
      }

      .b {
        fill: url(#a);
      }

      .c {
        mix-blend-mode: multiply;
        fill: url(#b);
      }
    </style>
    <linearGradient id="a" x1="2167.55" y1="-592.14" x2="2167.55" y2="-982.32" gradientTransform="translate(2311.55 -586.58) rotate(180)" gradientUnits="userSpaceOnUse">
      <stop offset="0" stop-color="#faf52d"/>
      <stop offset="1" stop-color="#607915"/>
    </linearGradient>
    <linearGradient id="b" x1="144" y1="179649.79" x2="144" y2="-873417.63" gradientTransform="matrix(1, 0, 0, 1, 0, 0)" xlink:href="#a"/>
  </defs>
  <title>Iron Fist</title>
  <g class="a">
    <g>
      <rect class="b" width="288" height="288"/>
      <path class="c" d="M154.8,65.26a.46.46,0,1,0-.46-.46A.47.47,0,0,0,154.8,65.26Zm0,14.52a.58.58,0,1,0-.58-.58A.58.58,0,0,0,154.8,79.78Zm0,43.68a1.06,1.06,0,1,0-1.06-1.06A1.07,1.07,0,0,0,154.8,123.46Zm0-14.56a.9.9,0,1,0-.9-.9A.9.9,0,0,0,154.8,108.9Zm0-14.56a.74.74,0,1,0-.74-.74A.74.74,0,0,0,154.8,94.34Zm0-58.12a.22.22,0,1,0-.22-.22A.22.22,0,0,0,154.8,36.22Zm-3.6,138.34a1.76,1.76,0,1,0-1.76-1.76A1.76,1.76,0,0,0,151.2,174.56Zm3.6-152.82a.14.14,0,1,0-.14-.14A.14.14,0,0,0,154.8,21.74Zm0,116.3a1.24,1.24,0,1,0-1.24-1.24A1.25,1.25,0,0,0,154.8,138Zm18,36.52A1.76,1.76,0,1,0,171,172.8,1.76,1.76,0,0,0,172.8,174.56Zm-21.6-14.62a1.54,1.54,0,1,0-1.54-1.54A1.54,1.54,0,0,0,151.2,159.94Zm3.6-109.22a.32.32,0,1,0-.32-.32A.32.32,0,0,0,154.8,50.72Zm3.6,21.8a.52.52,0,1,0-.52-.52A.52.52,0,0,0,158.4,72.52Zm0,29.1a.82.82,0,1,0-.82-.82A.82.82,0,0,0,158.4,101.62Zm0-14.56a.66.66,0,1,0-.66-.66A.67.67,0,0,0,158.4,87.06Zm0,43.7a1.16,1.16,0,1,0-1.16-1.16A1.16,1.16,0,0,0,158.4,130.76Zm0-14.58a1,1,0,1,0-1-1A1,1,0,0,0,158.4,116.18Zm-3.6,36.46a1.44,1.44,0,1,0-1.44-1.44A1.45,1.45,0,0,0,154.8,152.64Zm0,14.62a1.66,1.66,0,1,0-1.66-1.66A1.66,1.66,0,0,0,154.8,167.26Zm0,10.86a1.88,1.88,0,1,0,1.88,1.88A1.88,1.88,0,0,0,154.8,178.12Zm3.6-134.64a.28.28,0,1,0-.28-.28A.29.29,0,0,0,158.4,43.48Zm0,14.52a.4.4,0,1,0-.4-.4A.4.4,0,0,0,158.4,58Zm0-29a.18.18,0,1,0-.18-.18A.18.18,0,0,0,158.4,29Zm-7.2,101.78A1.16,1.16,0,1,0,150,129.6,1.16,1.16,0,0,0,151.2,130.76Zm-3.6-80a.32.32,0,1,0-.32-.32A.32.32,0,0,0,147.6,50.72Zm0,14.54a.46.46,0,1,0-.46-.46A.47.47,0,0,0,147.6,65.26Zm0,29.08a.74.74,0,1,0-.74-.74A.74.74,0,0,0,147.6,94.34Zm0-14.56a.58.58,0,1,0-.58-.58A.58.58,0,0,0,147.6,79.78Zm0,29.12a.9.9,0,1,0-.9-.9A.9.9,0,0,0,147.6,108.9Zm0,14.56a1.06,1.06,0,1,0-1.06-1.06A1.07,1.07,0,0,0,147.6,123.46ZM147.68,7.2a.08.08,0,1,0-.08.08A.09.09,0,0,0,147.68,7.2ZM144,174.56a1.76,1.76,0,1,0-1.76-1.76A1.76,1.76,0,0,0,144,174.56Zm0-14.62a1.54,1.54,0,1,0-1.54-1.54A1.54,1.54,0,0,0,144,159.94Zm0-14.6a1.34,1.34,0,1,0-1.34-1.34A1.34,1.34,0,0,0,144,145.34Zm3.6-123.6a.14.14,0,1,0-.14-.14A.14.14,0,0,0,147.6,21.74Zm0,14.48a.22.22,0,1,0-.22-.22A.22.22,0,0,0,147.6,36.22Zm0,131a1.66,1.66,0,1,0-1.66-1.66A1.66,1.66,0,0,0,147.6,167.26Zm3.6-80.2a.66.66,0,1,0-.66-.66A.67.67,0,0,0,151.2,87.06Zm0,14.56a.82.82,0,1,0-.82-.82A.82.82,0,0,0,151.2,101.62Zm0-29.1a.52.52,0,1,0-.52-.52A.52.52,0,0,0,151.2,72.52Zm0,43.66a1,1,0,1,0-1-1A1,1,0,0,0,151.2,116.18Zm-3.6,36.46a1.44,1.44,0,1,0-1.44-1.44A1.45,1.45,0,0,0,147.6,152.64Zm10.8-7.3a1.34,1.34,0,1,0-1.34-1.34A1.34,1.34,0,0,0,158.4,145.34Zm-10.8,32.78a1.88,1.88,0,1,0,1.88,1.88A1.88,1.88,0,0,0,147.6,178.12Zm3.6-32.78a1.34,1.34,0,1,0-1.34-1.34A1.34,1.34,0,0,0,151.2,145.34Zm0-101.86a.28.28,0,1,0-.28-.28A.29.29,0,0,0,151.2,43.48Zm0-14.5a.18.18,0,1,0-.18-.18A.18.18,0,0,0,151.2,29Zm0,29a.4.4,0,1,0-.4-.4A.4.4,0,0,0,151.2,58Zm-3.6,80a1.24,1.24,0,1,0-1.24-1.24A1.25,1.25,0,0,0,147.6,138Zm21.6-14.58a1.06,1.06,0,1,0-1.06-1.06A1.07,1.07,0,0,0,169.2,123.46Zm0-14.56a.9.9,0,1,0-.9-.9A.9.9,0,0,0,169.2,108.9Zm0-29.12a.58.58,0,1,0-.58-.58A.58.58,0,0,0,169.2,79.78Zm-10.8,80.16a1.54,1.54,0,1,0-1.54-1.54A1.54,1.54,0,0,0,158.4,159.94Zm10.8-7.3a1.44,1.44,0,1,0-1.44-1.44A1.45,1.45,0,0,0,169.2,152.64Zm0-14.6A1.24,1.24,0,1,0,168,136.8,1.25,1.25,0,0,0,169.2,138Zm0-43.7a.74.74,0,1,0-.74-.74A.74.74,0,0,0,169.2,94.34Zm-3.6,80.22a1.76,1.76,0,1,0-1.76-1.76A1.76,1.76,0,0,0,165.6,174.56ZM169.28,7.2a.08.08,0,1,0-.08.08A.09.09,0,0,0,169.28,7.2Zm-.08,58.06a.46.46,0,1,0-.46-.46A.47.47,0,0,0,169.2,65.26Zm0-14.54a.32.32,0,1,0-.32-.32A.32.32,0,0,0,169.2,50.72Zm0-14.5A.22.22,0,1,0,169,36,.22.22,0,0,0,169.2,36.22Zm0-14.48a.14.14,0,1,0-.14-.14A.14.14,0,0,0,169.2,21.74Zm3.6,79.88a.82.82,0,1,0-.82-.82A.82.82,0,0,0,172.8,101.62Zm0,29.14a1.16,1.16,0,1,0-1.16-1.16A1.16,1.16,0,0,0,172.8,130.76Zm0-14.58a1,1,0,1,0-1-1A1,1,0,0,0,172.8,116.18Zm0,43.76a1.54,1.54,0,1,0-1.54-1.54A1.54,1.54,0,0,0,172.8,159.94Zm0-14.6a1.34,1.34,0,1,0-1.34-1.34A1.34,1.34,0,0,0,172.8,145.34Zm0-72.82a.52.52,0,1,0-.52-.52A.52.52,0,0,0,172.8,72.52Zm0-29a.28.28,0,1,0-.28-.28A.29.29,0,0,0,172.8,43.48Zm0-14.5a.18.18,0,1,0-.18-.18A.18.18,0,0,0,172.8,29Zm0,58.08a.66.66,0,1,0-.66-.66A.67.67,0,0,0,172.8,87.06Zm0-29.06a.4.4,0,1,0-.4-.4A.4.4,0,0,0,172.8,58Zm-3.6,120.12a1.88,1.88,0,1,0,1.88,1.88A1.88,1.88,0,0,0,169.2,178.12Zm0-10.86a1.66,1.66,0,1,0-1.66-1.66A1.66,1.66,0,0,0,169.2,167.26Zm-7.2-102a.46.46,0,1,0-.46-.46A.47.47,0,0,0,162,65.26Zm0,43.64a.9.9,0,1,0-.9-.9A.9.9,0,0,0,162,108.9Zm0-29.12a.58.58,0,1,0-.58-.58A.58.58,0,0,0,162,79.78Zm0,14.56a.74.74,0,1,0-.74-.74A.74.74,0,0,0,162,94.34Zm0,43.7a1.24,1.24,0,1,0-1.24-1.24A1.25,1.25,0,0,0,162,138Zm0-14.58a1.06,1.06,0,1,0-1.06-1.06A1.07,1.07,0,0,0,162,123.46Zm-3.6,51.1a1.76,1.76,0,1,0-1.76-1.76A1.76,1.76,0,0,0,158.4,174.56Zm3.6-21.92a1.44,1.44,0,1,0-1.44-1.44A1.45,1.45,0,0,0,162,152.64Zm0-130.9a.14.14,0,1,0-.14-.14A.14.14,0,0,0,162,21.74Zm0,29a.32.32,0,1,0-.32-.32A.32.32,0,0,0,162,50.72Zm.08-43.52a.08.08,0,1,0-.08.08A.09.09,0,0,0,162.08,7.2Zm-.08,29a.22.22,0,1,0-.22-.22A.22.22,0,0,0,162,36.22Zm3.6,36.3a.52.52,0,1,0-.52-.52A.52.52,0,0,0,165.6,72.52ZM162,167.26a1.66,1.66,0,1,0-1.66-1.66A1.66,1.66,0,0,0,162,167.26Zm3.6-51.08a1,1,0,1,0-1-1A1,1,0,0,0,165.6,116.18Zm0-29.12a.66.66,0,1,0-.66-.66A.67.67,0,0,0,165.6,87.06Zm0,58.28a1.34,1.34,0,1,0-1.34-1.34A1.34,1.34,0,0,0,165.6,145.34Zm0-14.58a1.16,1.16,0,1,0-1.16-1.16A1.16,1.16,0,0,0,165.6,130.76Zm0-29.14a.82.82,0,1,0-.82-.82A.82.82,0,0,0,165.6,101.62Zm0,58.32a1.54,1.54,0,1,0-1.54-1.54A1.54,1.54,0,0,0,165.6,159.94ZM162,178.12a1.88,1.88,0,1,0,1.88,1.88A1.88,1.88,0,0,0,162,178.12Zm72-98.34a.58.58,0,1,0-.58-.58A.58.58,0,0,0,234,79.78ZM165.6,58a.4.4,0,1,0-.4-.4A.4.4,0,0,0,165.6,58Zm0-29a.18.18,0,1,0-.18-.18A.18.18,0,0,0,165.6,29ZM154.88,7.2a.08.08,0,1,0-.08.08A.09.09,0,0,0,154.88,7.2ZM126,108.9a.9.9,0,1,0-.9-.9A.9.9,0,0,0,126,108.9Zm0-58.18a.32.32,0,1,0-.32-.32A.32.32,0,0,0,126,50.72Zm0-14.5a.22.22,0,1,0-.22-.22A.22.22,0,0,0,126,36.22Zm0,43.56a.58.58,0,1,0-.58-.58A.58.58,0,0,0,126,79.78Zm18,51a1.16,1.16,0,1,0-1.16-1.16A1.16,1.16,0,0,0,144,130.76ZM126,94.34a.74.74,0,1,0-.74-.74A.74.74,0,0,0,126,94.34Zm0-29.08a.46.46,0,1,0-.46-.46A.47.47,0,0,0,126,65.26Zm-3.6,50.92a1,1,0,1,0-1-1A1,1,0,0,0,122.4,116.18Zm0,29.16a1.34,1.34,0,1,0-1.34-1.34A1.34,1.34,0,0,0,122.4,145.34Zm0,14.6a1.54,1.54,0,1,0-1.54-1.54A1.54,1.54,0,0,0,122.4,159.94Zm0,14.62a1.76,1.76,0,1,0-1.76-1.76A1.76,1.76,0,0,0,122.4,174.56ZM126,21.74a.14.14,0,1,0-.14-.14A.14.14,0,0,0,126,21.74Zm-3.6,109a1.16,1.16,0,1,0-1.16-1.16A1.16,1.16,0,0,0,122.4,130.76ZM129.6,58a.4.4,0,1,0-.4-.4A.4.4,0,0,0,129.6,58Zm0,14.52a.52.52,0,1,0-.52-.52A.52.52,0,0,0,129.6,72.52Zm0,29.1a.82.82,0,1,0-.82-.82A.82.82,0,0,0,129.6,101.62ZM126,123.46a1.06,1.06,0,1,0-1.06-1.06A1.07,1.07,0,0,0,126,123.46Zm3.6-36.4a.66.66,0,1,0-.66-.66A.67.67,0,0,0,129.6,87.06Zm0-58.08a.18.18,0,1,0-.18-.18A.18.18,0,0,0,129.6,29Zm0,14.5a.28.28,0,1,0-.28-.28A.29.29,0,0,0,129.6,43.48ZM126,152.64a1.44,1.44,0,1,0-1.44-1.44A1.45,1.45,0,0,0,126,152.64Zm0-14.6a1.24,1.24,0,1,0-1.24-1.24A1.25,1.25,0,0,0,126,138Zm0,29.22a1.66,1.66,0,1,0-1.66-1.66A1.66,1.66,0,0,0,126,167.26Zm0,10.86a1.88,1.88,0,1,0,1.88,1.88A1.88,1.88,0,0,0,126,178.12Zm-7.2,0a1.88,1.88,0,1,0,1.88,1.88A1.88,1.88,0,0,0,118.8,178.12Zm0-141.9a.22.22,0,1,0-.22-.22A.22.22,0,0,0,118.8,36.22Zm0-14.48a.14.14,0,1,0-.14-.14A.14.14,0,0,0,118.8,21.74Zm.08-14.54a.08.08,0,1,0-.08.08A.09.09,0,0,0,118.88,7.2Zm-.08,43.52a.32.32,0,1,0-.32-.32A.32.32,0,0,0,118.8,50.72Zm0,14.54a.46.46,0,1,0-.46-.46A.47.47,0,0,0,118.8,65.26Zm0,29.08a.74.74,0,1,0-.74-.74A.74.74,0,0,0,118.8,94.34Zm3.6,7.28a.82.82,0,1,0-.82-.82A.82.82,0,0,0,122.4,101.62Zm-7.2,29.14A1.16,1.16,0,1,0,114,129.6,1.16,1.16,0,0,0,115.2,130.76Zm0-14.58a1,1,0,1,0-1-1A1,1,0,0,0,115.2,116.18Zm0,43.76a1.54,1.54,0,1,0-1.54-1.54A1.54,1.54,0,0,0,115.2,159.94Zm0-14.6a1.34,1.34,0,1,0-1.34-1.34A1.34,1.34,0,0,0,115.2,145.34Zm0,29.22a1.76,1.76,0,1,0-1.76-1.76A1.76,1.76,0,0,0,115.2,174.56Zm3.6-94.78a.58.58,0,1,0-.58-.58A.58.58,0,0,0,118.8,79.78Zm3.6-36.3a.28.28,0,1,0-.28-.28A.29.29,0,0,0,122.4,43.48Zm0-14.5a.18.18,0,1,0-.18-.18A.18.18,0,0,0,122.4,29Zm0,29a.4.4,0,1,0-.4-.4A.4.4,0,0,0,122.4,58Zm0,29.06a.66.66,0,1,0-.66-.66A.67.67,0,0,0,122.4,87.06Zm0-14.54a.52.52,0,1,0-.52-.52A.52.52,0,0,0,122.4,72.52Zm7.2,43.66a1,1,0,1,0-1-1A1,1,0,0,0,129.6,116.18Zm-10.8,7.28a1.06,1.06,0,1,0-1.06-1.06A1.07,1.07,0,0,0,118.8,123.46Zm0-14.56a.9.9,0,1,0-.9-.9A.9.9,0,0,0,118.8,108.9Zm0,29.14a1.24,1.24,0,1,0-1.24-1.24A1.25,1.25,0,0,0,118.8,138Zm0,14.6a1.44,1.44,0,1,0-1.44-1.44A1.45,1.45,0,0,0,118.8,152.64Zm0,14.62a1.66,1.66,0,1,0-1.66-1.66A1.66,1.66,0,0,0,118.8,167.26ZM126.08,7.2a.08.08,0,1,0-.08.08A.09.09,0,0,0,126.08,7.2ZM140.4,123.46a1.06,1.06,0,1,0-1.06-1.06A1.07,1.07,0,0,0,140.4,123.46Zm0-43.68a.58.58,0,1,0-.58-.58A.58.58,0,0,0,140.4,79.78Zm0-43.56a.22.22,0,1,0-.22-.22A.22.22,0,0,0,140.4,36.22Zm-10.8,94.54a1.16,1.16,0,1,0-1.16-1.16A1.16,1.16,0,0,0,129.6,130.76Zm10.8-36.42a.74.74,0,1,0-.74-.74A.74.74,0,0,0,140.4,94.34Zm0,14.56a.9.9,0,1,0-.9-.9A.9.9,0,0,0,140.4,108.9Zm0-43.64a.46.46,0,1,0-.46-.46A.47.47,0,0,0,140.4,65.26Zm-3.6,94.68a1.54,1.54,0,1,0-1.54-1.54A1.54,1.54,0,0,0,136.8,159.94Zm0-14.6a1.34,1.34,0,1,0-1.34-1.34A1.34,1.34,0,0,0,136.8,145.34Zm0,29.22A1.76,1.76,0,1,0,135,172.8,1.76,1.76,0,0,0,136.8,174.56ZM140.48,7.2a.08.08,0,1,0-.08.08A.09.09,0,0,0,140.48,7.2ZM136.8,130.76a1.16,1.16,0,1,0-1.16-1.16A1.16,1.16,0,0,0,136.8,130.76Zm3.6-109a.14.14,0,1,0-.14-.14A.14.14,0,0,0,140.4,21.74ZM144,87.06a.66.66,0,1,0-.66-.66A.67.67,0,0,0,144,87.06Zm0-14.54a.52.52,0,1,0-.52-.52A.52.52,0,0,0,144,72.52Zm0,43.66a1,1,0,1,0-1-1A1,1,0,0,0,144,116.18ZM144,58a.4.4,0,1,0-.4-.4A.4.4,0,0,0,144,58Zm0,43.62a.82.82,0,1,0-.82-.82A.82.82,0,0,0,144,101.62ZM144,29a.18.18,0,1,0-.18-.18A.18.18,0,0,0,144,29Zm-3.6,138.28a1.66,1.66,0,1,0-1.66-1.66A1.66,1.66,0,0,0,140.4,167.26Zm0-14.62A1.44,1.44,0,1,0,139,151.2,1.45,1.45,0,0,0,140.4,152.64Zm0-14.6a1.24,1.24,0,1,0-1.24-1.24A1.25,1.25,0,0,0,140.4,138ZM144,43.48a.28.28,0,1,0-.28-.28A.29.29,0,0,0,144,43.48Zm-3.6,134.64a1.88,1.88,0,1,0,1.88,1.88A1.88,1.88,0,0,0,140.4,178.12Zm0-127.4a.32.32,0,1,0-.32-.32A.32.32,0,0,0,140.4,50.72Zm-7.2-14.5A.22.22,0,1,0,133,36,.22.22,0,0,0,133.2,36.22Zm0,29a.46.46,0,1,0-.46-.46A.47.47,0,0,0,133.2,65.26Zm0-14.54a.32.32,0,1,0-.32-.32A.32.32,0,0,0,133.2,50.72Zm0,29.06a.58.58,0,1,0-.58-.58A.58.58,0,0,0,133.2,79.78Zm0,14.56a.74.74,0,1,0-.74-.74A.74.74,0,0,0,133.2,94.34Zm-3.6,51a1.34,1.34,0,1,0-1.34-1.34A1.34,1.34,0,0,0,129.6,145.34Zm0,14.6a1.54,1.54,0,1,0-1.54-1.54A1.54,1.54,0,0,0,129.6,159.94Zm3.6-51a.9.9,0,1,0-.9-.9A.9.9,0,0,0,133.2,108.9Zm.08-101.7a.08.08,0,1,0-.08.08A.09.09,0,0,0,133.28,7.2Zm-.08,14.54a.14.14,0,1,0-.14-.14A.14.14,0,0,0,133.2,21.74Zm-3.6,152.82a1.76,1.76,0,1,0-1.76-1.76A1.76,1.76,0,0,0,129.6,174.56Zm7.2-58.38a1,1,0,1,0-1-1A1,1,0,0,0,136.8,116.18Zm0-58.18a.4.4,0,1,0-.4-.4A.4.4,0,0,0,136.8,58Zm-3.6,65.46a1.06,1.06,0,1,0-1.06-1.06A1.07,1.07,0,0,0,133.2,123.46Zm3.6-50.94a.52.52,0,1,0-.52-.52A.52.52,0,0,0,136.8,72.52Zm0,29.1a.82.82,0,1,0-.82-.82A.82.82,0,0,0,136.8,101.62Zm0-14.56a.66.66,0,1,0-.66-.66A.67.67,0,0,0,136.8,87.06Zm0-58.08a.18.18,0,1,0-.18-.18A.18.18,0,0,0,136.8,29Zm-3.6,123.66a1.44,1.44,0,1,0-1.44-1.44A1.45,1.45,0,0,0,133.2,152.64Zm0-14.6A1.24,1.24,0,1,0,132,136.8,1.25,1.25,0,0,0,133.2,138Zm0,40.08a1.88,1.88,0,1,0,1.88,1.88A1.88,1.88,0,0,0,133.2,178.12Zm3.6-134.64a.28.28,0,1,0-.28-.28A.29.29,0,0,0,136.8,43.48Zm-3.6,123.78a1.66,1.66,0,1,0-1.66-1.66A1.66,1.66,0,0,0,133.2,167.26Zm54-7.32a1.54,1.54,0,1,0-1.54-1.54A1.54,1.54,0,0,0,187.2,159.94Zm25.2-7.3A1.44,1.44,0,1,0,211,151.2,1.45,1.45,0,0,0,212.4,152.64Zm0,25.48a1.88,1.88,0,1,0,1.88,1.88A1.88,1.88,0,0,0,212.4,178.12Zm0-10.86a1.66,1.66,0,1,0-1.66-1.66A1.66,1.66,0,0,0,212.4,167.26ZM216,43.48a.28.28,0,1,0-.28-.28A.29.29,0,0,0,216,43.48ZM216,29a.18.18,0,1,0-.18-.18A.18.18,0,0,0,216,29Zm0,29a.4.4,0,1,0-.4-.4A.4.4,0,0,0,216,58Zm0,14.52a.52.52,0,1,0-.52-.52A.52.52,0,0,0,216,72.52Zm-3.6,7.26a.58.58,0,1,0-.58-.58A.58.58,0,0,0,212.4,79.78Zm0,14.56a.74.74,0,1,0-.74-.74A.74.74,0,0,0,212.4,94.34Zm0,14.56a.9.9,0,1,0-.9-.9A.9.9,0,0,0,212.4,108.9Zm0,14.56a1.06,1.06,0,1,0-1.06-1.06A1.07,1.07,0,0,0,212.4,123.46Zm0,14.58a1.24,1.24,0,1,0-1.24-1.24A1.25,1.25,0,0,0,212.4,138Zm3.6-21.86a1,1,0,1,0-1-1A1,1,0,0,0,216,116.18Zm0,58.38a1.76,1.76,0,1,0-1.76-1.76A1.76,1.76,0,0,0,216,174.56Zm3.6-152.82a.14.14,0,1,0-.14-.14A.14.14,0,0,0,219.6,21.74Zm.08-14.54a.08.08,0,1,0-.08.08A.09.09,0,0,0,219.68,7.2Zm-.08,43.52a.32.32,0,1,0-.32-.32A.32.32,0,0,0,219.6,50.72ZM216,87.06a.66.66,0,1,0-.66-.66A.67.67,0,0,0,216,87.06Zm3.6-50.84a.22.22,0,1,0-.22-.22A.22.22,0,0,0,219.6,36.22ZM216,159.94a1.54,1.54,0,1,0-1.54-1.54A1.54,1.54,0,0,0,216,159.94Zm0-58.32a.82.82,0,1,0-.82-.82A.82.82,0,0,0,216,101.62Zm-3.6-36.36a.46.46,0,1,0-.46-.46A.47.47,0,0,0,212.4,65.26Zm3.6,80.08a1.34,1.34,0,1,0-1.34-1.34A1.34,1.34,0,0,0,216,145.34Zm0-14.58a1.16,1.16,0,1,0-1.16-1.16A1.16,1.16,0,0,0,216,130.76Zm-7.2,43.8A1.76,1.76,0,1,0,207,172.8,1.76,1.76,0,0,0,208.8,174.56Zm-3.6,3.56a1.88,1.88,0,1,0,1.88,1.88A1.88,1.88,0,0,0,205.2,178.12Zm0-10.86a1.66,1.66,0,1,0-1.66-1.66A1.66,1.66,0,0,0,205.2,167.26Zm0-29.22A1.24,1.24,0,1,0,204,136.8,1.25,1.25,0,0,0,205.2,138Zm0,14.6a1.44,1.44,0,1,0-1.44-1.44A1.45,1.45,0,0,0,205.2,152.64ZM208.8,29a.18.18,0,1,0-.18-.18A.18.18,0,0,0,208.8,29Zm0,14.5a.28.28,0,1,0-.28-.28A.29.29,0,0,0,208.8,43.48Zm-3.6,50.86a.74.74,0,1,0-.74-.74A.74.74,0,0,0,205.2,94.34Zm0-14.56a.58.58,0,1,0-.58-.58A.58.58,0,0,0,205.2,79.78Zm0-14.52a.46.46,0,1,0-.46-.46A.47.47,0,0,0,205.2,65.26Zm0,43.64a.9.9,0,1,0-.9-.9A.9.9,0,0,0,205.2,108.9ZM208.8,58a.4.4,0,1,0-.4-.4A.4.4,0,0,0,208.8,58Zm-3.6,65.46a1.06,1.06,0,1,0-1.06-1.06A1.07,1.07,0,0,0,205.2,123.46ZM212.48,7.2a.08.08,0,1,0-.08.08A.09.09,0,0,0,212.48,7.2Zm7.12,58.06a.46.46,0,1,0-.46-.46A.47.47,0,0,0,219.6,65.26Zm-10.8,94.68a1.54,1.54,0,1,0-1.54-1.54A1.54,1.54,0,0,0,208.8,159.94Zm3.6-138.2a.14.14,0,1,0-.14-.14A.14.14,0,0,0,212.4,21.74Zm0,14.48a.22.22,0,1,0-.22-.22A.22.22,0,0,0,212.4,36.22Zm-3.6,36.3a.52.52,0,1,0-.52-.52A.52.52,0,0,0,208.8,72.52Zm3.6-21.8a.32.32,0,1,0-.32-.32A.32.32,0,0,0,212.4,50.72Zm-3.6,94.62a1.34,1.34,0,1,0-1.34-1.34A1.34,1.34,0,0,0,208.8,145.34Zm0-43.72a.82.82,0,1,0-.82-.82A.82.82,0,0,0,208.8,101.62Zm0-14.56a.66.66,0,1,0-.66-.66A.67.67,0,0,0,208.8,87.06Zm0,29.12a1,1,0,1,0-1-1A1,1,0,0,0,208.8,116.18Zm0,14.58a1.16,1.16,0,1,0-1.16-1.16A1.16,1.16,0,0,0,208.8,130.76ZM230.4,29a.18.18,0,1,0-.18-.18A.18.18,0,0,0,230.4,29Zm0,14.5a.28.28,0,1,0-.28-.28A.29.29,0,0,0,230.4,43.48Zm-3.6,123.78a1.66,1.66,0,1,0-1.66-1.66A1.66,1.66,0,0,0,226.8,167.26ZM205.2,50.72a.32.32,0,1,0-.32-.32A.32.32,0,0,0,205.2,50.72Zm21.6,127.4a1.88,1.88,0,1,0,1.88,1.88A1.88,1.88,0,0,0,226.8,178.12Zm3.6-105.6a.52.52,0,1,0-.52-.52A.52.52,0,0,0,230.4,72.52Zm0-14.52a.4.4,0,1,0-.4-.4A.4.4,0,0,0,230.4,58Zm-3.6,36.34a.74.74,0,1,0-.74-.74A.74.74,0,0,0,226.8,94.34Zm3.6-7.28a.66.66,0,1,0-.66-.66A.67.67,0,0,0,230.4,87.06Zm-3.6,65.58a1.44,1.44,0,1,0-1.44-1.44A1.45,1.45,0,0,0,226.8,152.64Zm0-43.74a.9.9,0,1,0-.9-.9A.9.9,0,0,0,226.8,108.9Zm0,14.56a1.06,1.06,0,1,0-1.06-1.06A1.07,1.07,0,0,0,226.8,123.46Zm0,14.58a1.24,1.24,0,1,0-1.24-1.24A1.25,1.25,0,0,0,226.8,138ZM234,65.26a.46.46,0,1,0-.46-.46A.47.47,0,0,0,234,65.26Zm0-29a.22.22,0,1,0-.22-.22A.22.22,0,0,0,234,36.22Zm.08-29a.08.08,0,1,0-.08.08A.09.09,0,0,0,234.08,7.2ZM234,21.74a.14.14,0,1,0-.14-.14A.14.14,0,0,0,234,21.74Zm-7.2,58a.58.58,0,1,0-.58-.58A.58.58,0,0,0,226.8,79.78ZM234,50.72a.32.32,0,1,0-.32-.32A.32.32,0,0,0,234,50.72Zm-3.6,123.84a1.76,1.76,0,1,0-1.76-1.76A1.76,1.76,0,0,0,230.4,174.56Zm0-43.8a1.16,1.16,0,1,0-1.16-1.16A1.16,1.16,0,0,0,230.4,130.76Zm0-29.14a.82.82,0,1,0-.82-.82A.82.82,0,0,0,230.4,101.62Zm0,14.56a1,1,0,1,0-1-1A1,1,0,0,0,230.4,116.18Zm0,29.16a1.34,1.34,0,1,0-1.34-1.34A1.34,1.34,0,0,0,230.4,145.34Zm0,14.6a1.54,1.54,0,1,0-1.54-1.54A1.54,1.54,0,0,0,230.4,159.94ZM219.6,79.78a.58.58,0,1,0-.58-.58A.58.58,0,0,0,219.6,79.78Zm3.6-36.3a.28.28,0,1,0-.28-.28A.29.29,0,0,0,223.2,43.48Zm-3.6,134.64a1.88,1.88,0,1,0,1.88,1.88A1.88,1.88,0,0,0,219.6,178.12ZM223.2,29a.18.18,0,1,0-.18-.18A.18.18,0,0,0,223.2,29Zm3.6,36.28a.46.46,0,1,0-.46-.46A.47.47,0,0,0,226.8,65.26Zm-3.6,7.26a.52.52,0,1,0-.52-.52A.52.52,0,0,0,223.2,72.52Zm0-14.52a.4.4,0,1,0-.4-.4A.4.4,0,0,0,223.2,58Zm-3.6,50.9a.9.9,0,1,0-.9-.9A.9.9,0,0,0,219.6,108.9Zm0-14.56a.74.74,0,1,0-.74-.74A.74.74,0,0,0,219.6,94.34Zm0,29.12a1.06,1.06,0,1,0-1.06-1.06A1.07,1.07,0,0,0,219.6,123.46Zm0,29.18a1.44,1.44,0,1,0-1.44-1.44A1.45,1.45,0,0,0,219.6,152.64Zm0-14.6a1.24,1.24,0,1,0-1.24-1.24A1.25,1.25,0,0,0,219.6,138Zm0,29.22a1.66,1.66,0,1,0-1.66-1.66A1.66,1.66,0,0,0,219.6,167.26ZM226.88,7.2a.08.08,0,1,0-.08.08A.09.09,0,0,0,226.88,7.2Zm-.08,14.54a.14.14,0,1,0-.14-.14A.14.14,0,0,0,226.8,21.74Zm-3.6,65.32a.66.66,0,1,0-.66-.66A.67.67,0,0,0,223.2,87.06Zm0,87.5a1.76,1.76,0,1,0-1.76-1.76A1.76,1.76,0,0,0,223.2,174.56Zm3.6-138.34a.22.22,0,1,0-.22-.22A.22.22,0,0,0,226.8,36.22Zm0,14.5a.32.32,0,1,0-.32-.32A.32.32,0,0,0,226.8,50.72Zm-3.6,50.9a.82.82,0,1,0-.82-.82A.82.82,0,0,0,223.2,101.62Zm0,58.32a1.54,1.54,0,1,0-1.54-1.54A1.54,1.54,0,0,0,223.2,159.94Zm0-43.76a1,1,0,1,0-1-1A1,1,0,0,0,223.2,116.18Zm0,29.16a1.34,1.34,0,1,0-1.34-1.34A1.34,1.34,0,0,0,223.2,145.34Zm0-14.58A1.16,1.16,0,1,0,222,129.6,1.16,1.16,0,0,0,223.2,130.76ZM194.4,43.48a.28.28,0,1,0-.28-.28A.29.29,0,0,0,194.4,43.48ZM183.6,152.64a1.44,1.44,0,1,0-1.44-1.44A1.45,1.45,0,0,0,183.6,152.64ZM183.68,7.2a.08.08,0,1,0-.08.08A.09.09,0,0,0,183.68,7.2Zm21.52,29A.22.22,0,1,0,205,36,.22.22,0,0,0,205.2,36.22ZM183.6,138a1.24,1.24,0,1,0-1.24-1.24A1.25,1.25,0,0,0,183.6,138Zm0,29.22a1.66,1.66,0,1,0-1.66-1.66A1.66,1.66,0,0,0,183.6,167.26Zm0,10.86a1.88,1.88,0,1,0,1.88,1.88A1.88,1.88,0,0,0,183.6,178.12Zm0-54.66a1.06,1.06,0,1,0-1.06-1.06A1.07,1.07,0,0,0,183.6,123.46Zm0-87.24a.22.22,0,1,0-.22-.22A.22.22,0,0,0,183.6,36.22Zm0,14.5a.32.32,0,1,0-.32-.32A.32.32,0,0,0,183.6,50.72Zm0,29.06a.58.58,0,1,0-.58-.58A.58.58,0,0,0,183.6,79.78Zm0,14.56a.74.74,0,1,0-.74-.74A.74.74,0,0,0,183.6,94.34Zm0-29.08a.46.46,0,1,0-.46-.46A.47.47,0,0,0,183.6,65.26Zm0,43.64a.9.9,0,1,0-.9-.9A.9.9,0,0,0,183.6,108.9Zm3.6,36.44a1.34,1.34,0,1,0-1.34-1.34A1.34,1.34,0,0,0,187.2,145.34ZM187.2,29a.18.18,0,1,0-.18-.18A.18.18,0,0,0,187.2,29Zm0,101.78A1.16,1.16,0,1,0,186,129.6,1.16,1.16,0,0,0,187.2,130.76Zm0,43.8a1.76,1.76,0,1,0-1.76-1.76A1.76,1.76,0,0,0,187.2,174.56Zm3.6-152.82a.14.14,0,1,0-.14-.14A.14.14,0,0,0,190.8,21.74Zm-75.6,79.88a.82.82,0,1,0-.82-.82A.82.82,0,0,0,115.2,101.62ZM190.88,7.2a.08.08,0,1,0-.08.08A.09.09,0,0,0,190.88,7.2ZM187.2,58a.4.4,0,1,0-.4-.4A.4.4,0,0,0,187.2,58Zm0,29.06a.66.66,0,1,0-.66-.66A.67.67,0,0,0,187.2,87.06Zm0,29.12a1,1,0,1,0-1-1A1,1,0,0,0,187.2,116.18Zm0-14.56a.82.82,0,1,0-.82-.82A.82.82,0,0,0,187.2,101.62Zm0-29.1a.52.52,0,1,0-.52-.52A.52.52,0,0,0,187.2,72.52Zm-10.8,50.94a1.06,1.06,0,1,0-1.06-1.06A1.07,1.07,0,0,0,176.4,123.46Zm0,14.58a1.24,1.24,0,1,0-1.24-1.24A1.25,1.25,0,0,0,176.4,138Zm0,40.08a1.88,1.88,0,1,0,1.88,1.88A1.88,1.88,0,0,0,176.4,178.12Zm0-83.78a.74.74,0,1,0-.74-.74A.74.74,0,0,0,176.4,94.34Zm0,72.92a1.66,1.66,0,1,0-1.66-1.66A1.66,1.66,0,0,0,176.4,167.26Zm0-14.62A1.44,1.44,0,1,0,175,151.2,1.45,1.45,0,0,0,176.4,152.64Zm0-43.74a.9.9,0,1,0-.9-.9A.9.9,0,0,0,176.4,108.9Zm.08-101.7a.08.08,0,1,0-.08.08A.09.09,0,0,0,176.48,7.2Zm-.08,29a.22.22,0,1,0-.22-.22A.22.22,0,0,0,176.4,36.22Zm7.2-14.48a.14.14,0,1,0-.14-.14A.14.14,0,0,0,183.6,21.74Zm-7.2,29a.32.32,0,1,0-.32-.32A.32.32,0,0,0,176.4,50.72Zm0,29.06a.58.58,0,1,0-.58-.58A.58.58,0,0,0,176.4,79.78Zm0-14.52a.46.46,0,1,0-.46-.46A.47.47,0,0,0,176.4,65.26Zm3.6,50.92a1,1,0,1,0-1-1A1,1,0,0,0,180,116.18Zm0,29.16a1.34,1.34,0,1,0-1.34-1.34A1.34,1.34,0,0,0,180,145.34Zm0-14.58a1.16,1.16,0,1,0-1.16-1.16A1.16,1.16,0,0,0,180,130.76Zm0,29.18a1.54,1.54,0,1,0-1.54-1.54A1.54,1.54,0,0,0,180,159.94Zm0,14.62a1.76,1.76,0,1,0-1.76-1.76A1.76,1.76,0,0,0,180,174.56ZM180,29a.18.18,0,1,0-.18-.18A.18.18,0,0,0,180,29Zm0,29a.4.4,0,1,0-.4-.4A.4.4,0,0,0,180,58Zm0-14.52a.28.28,0,1,0-.28-.28A.29.29,0,0,0,180,43.48Zm0,58.14a.82.82,0,1,0-.82-.82A.82.82,0,0,0,180,101.62Zm0-14.56a.66.66,0,1,0-.66-.66A.67.67,0,0,0,180,87.06Zm0-14.54a.52.52,0,1,0-.52-.52A.52.52,0,0,0,180,72.52Zm7.2-29a.28.28,0,1,0-.28-.28A.29.29,0,0,0,187.2,43.48ZM198,152.64a1.44,1.44,0,1,0-1.44-1.44A1.45,1.45,0,0,0,198,152.64Zm0-116.42a.22.22,0,1,0-.22-.22A.22.22,0,0,0,198,36.22ZM198,138a1.24,1.24,0,1,0-1.24-1.24A1.25,1.25,0,0,0,198,138Zm0-14.58a1.06,1.06,0,1,0-1.06-1.06A1.07,1.07,0,0,0,198,123.46Zm3.6-80a.28.28,0,1,0-.28-.28A.29.29,0,0,0,201.6,43.48ZM198,178.12a1.88,1.88,0,1,0,1.88,1.88A1.88,1.88,0,0,0,198,178.12Zm0-69.22a.9.9,0,1,0-.9-.9A.9.9,0,0,0,198,108.9Zm0-43.64a.46.46,0,1,0-.46-.46A.47.47,0,0,0,198,65.26ZM201.6,29a.18.18,0,1,0-.18-.18A.18.18,0,0,0,201.6,29ZM198,50.72a.32.32,0,1,0-.32-.32A.32.32,0,0,0,198,50.72Zm0,43.62a.74.74,0,1,0-.74-.74A.74.74,0,0,0,198,94.34Zm0-14.56a.58.58,0,1,0-.58-.58A.58.58,0,0,0,198,79.78Zm0,87.48a1.66,1.66,0,1,0-1.66-1.66A1.66,1.66,0,0,0,198,167.26Zm3.6-7.32a1.54,1.54,0,1,0-1.54-1.54A1.54,1.54,0,0,0,201.6,159.94ZM201.6,58a.4.4,0,1,0-.4-.4A.4.4,0,0,0,201.6,58Zm0,87.34a1.34,1.34,0,1,0-1.34-1.34A1.34,1.34,0,0,0,201.6,145.34Zm3.6-123.6a.14.14,0,1,0-.14-.14A.14.14,0,0,0,205.2,21.74Zm.08-14.54a.08.08,0,1,0-.08.08A.09.09,0,0,0,205.28,7.2ZM201.6,174.56a1.76,1.76,0,1,0-1.76-1.76A1.76,1.76,0,0,0,201.6,174.56Zm0-43.8a1.16,1.16,0,1,0-1.16-1.16A1.16,1.16,0,0,0,201.6,130.76Zm0-43.7a.66.66,0,1,0-.66-.66A.67.67,0,0,0,201.6,87.06Zm0-14.54a.52.52,0,1,0-.52-.52A.52.52,0,0,0,201.6,72.52Zm0,43.66a1,1,0,1,0-1-1A1,1,0,0,0,201.6,116.18Zm0-14.56a.82.82,0,1,0-.82-.82A.82.82,0,0,0,201.6,101.62ZM190.8,138a1.24,1.24,0,1,0-1.24-1.24A1.25,1.25,0,0,0,190.8,138ZM176.4,21.74a.14.14,0,1,0-.14-.14A.14.14,0,0,0,176.4,21.74Zm14.4,101.72a1.06,1.06,0,1,0-1.06-1.06A1.07,1.07,0,0,0,190.8,123.46Zm0-87.24a.22.22,0,1,0-.22-.22A.22.22,0,0,0,190.8,36.22Zm0,141.9a1.88,1.88,0,1,0,1.88,1.88A1.88,1.88,0,0,0,190.8,178.12Zm0-10.86a1.66,1.66,0,1,0-1.66-1.66A1.66,1.66,0,0,0,190.8,167.26ZM198.08,7.2a.08.08,0,1,0-.08.08A.09.09,0,0,0,198.08,7.2ZM190.8,65.26a.46.46,0,1,0-.46-.46A.47.47,0,0,0,190.8,65.26Zm0-14.54a.32.32,0,1,0-.32-.32A.32.32,0,0,0,190.8,50.72Zm0,29.06a.58.58,0,1,0-.58-.58A.58.58,0,0,0,190.8,79.78Zm0,29.12a.9.9,0,1,0-.9-.9A.9.9,0,0,0,190.8,108.9Zm0-14.56a.74.74,0,1,0-.74-.74A.74.74,0,0,0,190.8,94.34Zm0,58.3a1.44,1.44,0,1,0-1.44-1.44A1.45,1.45,0,0,0,190.8,152.64Zm3.6-21.88a1.16,1.16,0,1,0-1.16-1.16A1.16,1.16,0,0,0,194.4,130.76Zm0,29.18a1.54,1.54,0,1,0-1.54-1.54A1.54,1.54,0,0,0,194.4,159.94Zm0-131a.18.18,0,1,0-.18-.18A.18.18,0,0,0,194.4,29Zm3.6-7.24a.14.14,0,1,0-.14-.14A.14.14,0,0,0,198,21.74Zm-3.6,152.82a1.76,1.76,0,1,0-1.76-1.76A1.76,1.76,0,0,0,194.4,174.56Zm0-29.22a1.34,1.34,0,1,0-1.34-1.34A1.34,1.34,0,0,0,194.4,145.34Zm0-72.82a.52.52,0,1,0-.52-.52A.52.52,0,0,0,194.4,72.52Zm0,43.66a1,1,0,1,0-1-1A1,1,0,0,0,194.4,116.18Zm0-58.18a.4.4,0,1,0-.4-.4A.4.4,0,0,0,194.4,58Zm0,43.62a.82.82,0,1,0-.82-.82A.82.82,0,0,0,194.4,101.62Zm0-14.56a.66.66,0,1,0-.66-.66A.67.67,0,0,0,194.4,87.06ZM165.6,43.48a.28.28,0,1,0-.28-.28A.29.29,0,0,0,165.6,43.48ZM36,116.18a1,1,0,1,0-1-1A1,1,0,0,0,36,116.18Zm0-14.56a.82.82,0,1,0-.82-.82A.82.82,0,0,0,36,101.62Zm0-29.1a.52.52,0,1,0-.52-.52A.52.52,0,0,0,36,72.52Zm0,87.42a1.54,1.54,0,1,0-1.54-1.54A1.54,1.54,0,0,0,36,159.94Zm0-29.18a1.16,1.16,0,1,0-1.16-1.16A1.16,1.16,0,0,0,36,130.76Zm-3.6,21.88A1.44,1.44,0,1,0,31,151.2,1.45,1.45,0,0,0,32.4,152.64ZM36,87.06a.66.66,0,1,0-.66-.66A.67.67,0,0,0,36,87.06Zm-3.6,91.06A1.88,1.88,0,1,0,34.28,180,1.88,1.88,0,0,0,32.4,178.12Zm0-10.86a1.66,1.66,0,1,0-1.66-1.66A1.66,1.66,0,0,0,32.4,167.26ZM36,58a.4.4,0,1,0-.4-.4A.4.4,0,0,0,36,58Zm0-29a.18.18,0,1,0-.18-.18A.18.18,0,0,0,36,29Zm0,14.5a.28.28,0,1,0-.28-.28A.29.29,0,0,0,36,43.48Zm0,101.86A1.34,1.34,0,1,0,34.66,144,1.34,1.34,0,0,0,36,145.34Zm3.6-36.44a.9.9,0,1,0-.9-.9A.9.9,0,0,0,39.6,108.9Zm0-14.56a.74.74,0,1,0-.74-.74A.74.74,0,0,0,39.6,94.34ZM36,174.56a1.76,1.76,0,1,0-1.76-1.76A1.76,1.76,0,0,0,36,174.56Zm18-7.3a1.66,1.66,0,1,0-1.66-1.66A1.66,1.66,0,0,0,54,167.26ZM39.6,138a1.24,1.24,0,1,0-1.24-1.24A1.25,1.25,0,0,0,39.6,138Zm0-14.58a1.06,1.06,0,1,0-1.06-1.06A1.07,1.07,0,0,0,39.6,123.46Zm0-58.2a.46.46,0,1,0-.46-.46A.47.47,0,0,0,39.6,65.26Zm0-43.52a.14.14,0,1,0-.14-.14A.14.14,0,0,0,39.6,21.74ZM39.68,7.2a.08.08,0,1,0-.08.08A.09.09,0,0,0,39.68,7.2ZM39.6,50.72a.32.32,0,1,0-.32-.32A.32.32,0,0,0,39.6,50.72Zm0-14.5a.22.22,0,1,0-.22-.22A.22.22,0,0,0,39.6,36.22ZM28.8,43.48a.28.28,0,1,0-.28-.28A.29.29,0,0,0,28.8,43.48Zm0,43.58a.66.66,0,1,0-.66-.66A.67.67,0,0,0,28.8,87.06Zm0-14.54a.52.52,0,1,0-.52-.52A.52.52,0,0,0,28.8,72.52Zm0,72.82A1.34,1.34,0,1,0,27.46,144,1.34,1.34,0,0,0,28.8,145.34ZM28.8,58a.4.4,0,1,0-.4-.4A.4.4,0,0,0,28.8,58Zm0,58.18a1,1,0,1,0-1-1A1,1,0,0,0,28.8,116.18Zm0,14.58a1.16,1.16,0,1,0-1.16-1.16A1.16,1.16,0,0,0,28.8,130.76Zm0-29.14a.82.82,0,1,0-.82-.82A.82.82,0,0,0,28.8,101.62Zm-3.6,51a1.44,1.44,0,1,0-1.44-1.44A1.45,1.45,0,0,0,25.2,152.64Zm0,14.62a1.66,1.66,0,1,0-1.66-1.66A1.66,1.66,0,0,0,25.2,167.26ZM28.8,29a.18.18,0,1,0-.18-.18A.18.18,0,0,0,28.8,29ZM25.2,178.12A1.88,1.88,0,1,0,27.08,180,1.88,1.88,0,0,0,25.2,178.12Zm14.4-25.48a1.44,1.44,0,1,0-1.44-1.44A1.45,1.45,0,0,0,39.6,152.64ZM32.4,108.9a.9.9,0,1,0-.9-.9A.9.9,0,0,0,32.4,108.9Zm0-14.56a.74.74,0,1,0-.74-.74A.74.74,0,0,0,32.4,94.34Zm0-14.56a.58.58,0,1,0-.58-.58A.58.58,0,0,0,32.4,79.78Zm0,58.26a1.24,1.24,0,1,0-1.24-1.24A1.25,1.25,0,0,0,32.4,138Zm0-14.58a1.06,1.06,0,1,0-1.06-1.06A1.07,1.07,0,0,0,32.4,123.46Zm0-58.2a.46.46,0,1,0-.46-.46A.47.47,0,0,0,32.4,65.26Zm-3.6,94.68a1.54,1.54,0,1,0-1.54-1.54A1.54,1.54,0,0,0,28.8,159.94Zm0,14.62A1.76,1.76,0,1,0,27,172.8,1.76,1.76,0,0,0,28.8,174.56ZM32.4,21.74a.14.14,0,1,0-.14-.14A.14.14,0,0,0,32.4,21.74ZM32.48,7.2a.08.08,0,1,0-.08.08A.09.09,0,0,0,32.48,7.2Zm-.08,29a.22.22,0,1,0-.22-.22A.22.22,0,0,0,32.4,36.22Zm0,14.5a.32.32,0,1,0-.32-.32A.32.32,0,0,0,32.4,50.72Zm18,123.84a1.76,1.76,0,1,0-1.76-1.76A1.76,1.76,0,0,0,50.4,174.56ZM25.2,138A1.24,1.24,0,1,0,24,136.8,1.25,1.25,0,0,0,25.2,138Zm25.2-7.28a1.16,1.16,0,1,0-1.16-1.16A1.16,1.16,0,0,0,50.4,130.76Zm0-29.14a.82.82,0,1,0-.82-.82A.82.82,0,0,0,50.4,101.62Zm0,58.32a1.54,1.54,0,1,0-1.54-1.54A1.54,1.54,0,0,0,50.4,159.94Zm0-72.88a.66.66,0,1,0-.66-.66A.67.67,0,0,0,50.4,87.06Zm0,58.28A1.34,1.34,0,1,0,49.06,144,1.34,1.34,0,0,0,50.4,145.34Zm0-29.16a1,1,0,1,0-1-1A1,1,0,0,0,50.4,116.18Zm0-72.7a.28.28,0,1,0-.28-.28A.29.29,0,0,0,50.4,43.48ZM46.8,178.12A1.88,1.88,0,1,0,48.68,180,1.88,1.88,0,0,0,46.8,178.12ZM50.4,29a.18.18,0,1,0-.18-.18A.18.18,0,0,0,50.4,29Zm0,43.54a.52.52,0,1,0-.52-.52A.52.52,0,0,0,50.4,72.52ZM50.4,58a.4.4,0,1,0-.4-.4A.4.4,0,0,0,50.4,58ZM54,36.22a.22.22,0,1,0-.22-.22A.22.22,0,0,0,54,36.22Zm-14.4,131a1.66,1.66,0,1,0-1.66-1.66A1.66,1.66,0,0,0,39.6,167.26ZM54,123.46a1.06,1.06,0,1,0-1.06-1.06A1.07,1.07,0,0,0,54,123.46Zm0,29.18a1.44,1.44,0,1,0-1.44-1.44A1.45,1.45,0,0,0,54,152.64ZM54,138a1.24,1.24,0,1,0-1.24-1.24A1.25,1.25,0,0,0,54,138Zm0-43.7a.74.74,0,1,0-.74-.74A.74.74,0,0,0,54,94.34Zm0,14.56a.9.9,0,1,0-.9-.9A.9.9,0,0,0,54,108.9ZM54.08,7.2a.08.08,0,1,0-.08.08A.09.09,0,0,0,54.08,7.2ZM54,79.78a.58.58,0,1,0-.58-.58A.58.58,0,0,0,54,79.78Zm-7.2,87.48a1.66,1.66,0,1,0-1.66-1.66A1.66,1.66,0,0,0,46.8,167.26ZM54,50.72a.32.32,0,1,0-.32-.32A.32.32,0,0,0,54,50.72Zm0,14.54a.46.46,0,1,0-.46-.46A.47.47,0,0,0,54,65.26Zm0-43.52a.14.14,0,1,0-.14-.14A.14.14,0,0,0,54,21.74ZM43.2,116.18a1,1,0,1,0-1-1A1,1,0,0,0,43.2,116.18Zm0-14.56a.82.82,0,1,0-.82-.82A.82.82,0,0,0,43.2,101.62Zm0-14.56a.66.66,0,1,0-.66-.66A.67.67,0,0,0,43.2,87.06Zm0,43.7A1.16,1.16,0,1,0,42,129.6,1.16,1.16,0,0,0,43.2,130.76Zm0,14.58A1.34,1.34,0,1,0,41.86,144,1.34,1.34,0,0,0,43.2,145.34ZM43.2,29A.18.18,0,1,0,43,28.8.18.18,0,0,0,43.2,29Zm0,43.54a.52.52,0,1,0-.52-.52A.52.52,0,0,0,43.2,72.52Zm-3.6,105.6A1.88,1.88,0,1,0,41.48,180,1.88,1.88,0,0,0,39.6,178.12ZM43.2,43.48a.28.28,0,1,0-.28-.28A.29.29,0,0,0,43.2,43.48Zm0,116.46a1.54,1.54,0,1,0-1.54-1.54A1.54,1.54,0,0,0,43.2,159.94ZM43.2,58a.4.4,0,1,0-.4-.4A.4.4,0,0,0,43.2,58Zm3.6,65.46a1.06,1.06,0,1,0-1.06-1.06A1.07,1.07,0,0,0,46.8,123.46Zm0-14.56a.9.9,0,1,0-.9-.9A.9.9,0,0,0,46.8,108.9Zm-3.6,65.66a1.76,1.76,0,1,0-1.76-1.76A1.76,1.76,0,0,0,43.2,174.56Zm3.6-80.22a.74.74,0,1,0-.74-.74A.74.74,0,0,0,46.8,94.34Zm0,43.7a1.24,1.24,0,1,0-1.24-1.24A1.25,1.25,0,0,0,46.8,138Zm0,14.6a1.44,1.44,0,1,0-1.44-1.44A1.45,1.45,0,0,0,46.8,152.64Zm0-72.86a.58.58,0,1,0-.58-.58A.58.58,0,0,0,46.8,79.78ZM46.88,7.2a.08.08,0,1,0-.08.08A.09.09,0,0,0,46.88,7.2ZM46.8,65.26a.46.46,0,1,0-.46-.46A.47.47,0,0,0,46.8,65.26Zm0-43.52a.14.14,0,1,0-.14-.14A.14.14,0,0,0,46.8,21.74Zm0,14.48a.22.22,0,1,0-.22-.22A.22.22,0,0,0,46.8,36.22Zm0,14.5a.32.32,0,1,0-.32-.32A.32.32,0,0,0,46.8,50.72ZM39.6,79.78A.58.58,0,1,0,39,79.2.58.58,0,0,0,39.6,79.78ZM7.2,43.48a.28.28,0,1,0-.28-.28A.29.29,0,0,0,7.2,43.48ZM7.2,58a.4.4,0,1,0-.4-.4A.4.4,0,0,0,7.2,58Zm0-29A.18.18,0,1,0,7,28.8.18.18,0,0,0,7.2,29Zm0,87.2a1,1,0,1,0-1-1A1,1,0,0,0,7.2,116.18Zm0-29.12a.66.66,0,1,0-.66-.66A.67.67,0,0,0,7.2,87.06Zm0,14.56a.82.82,0,1,0-.82-.82A.82.82,0,0,0,7.2,101.62Zm0-29.1A.52.52,0,1,0,6.68,72,.52.52,0,0,0,7.2,72.52ZM3.6,123.46a1.06,1.06,0,1,0-1.06-1.06A1.07,1.07,0,0,0,3.6,123.46ZM3.6,138a1.24,1.24,0,1,0-1.24-1.24A1.25,1.25,0,0,0,3.6,138Zm0,40.08A1.88,1.88,0,1,0,5.48,180,1.88,1.88,0,0,0,3.6,178.12Zm0-10.86a1.66,1.66,0,1,0-1.66-1.66A1.66,1.66,0,0,0,3.6,167.26Zm0-14.62a1.44,1.44,0,1,0-1.44-1.44A1.45,1.45,0,0,0,3.6,152.64Zm7.2-72.86a.58.58,0,1,0-.58-.58A.58.58,0,0,0,10.8,79.78Zm-3.6,51A1.16,1.16,0,1,0,6,129.6,1.16,1.16,0,0,0,7.2,130.76Zm3.6-65.5a.46.46,0,1,0-.46-.46A.47.47,0,0,0,10.8,65.26Zm0,29.08a.74.74,0,1,0-.74-.74A.74.74,0,0,0,10.8,94.34ZM3.6,108.9a.9.9,0,1,0-.9-.9A.9.9,0,0,0,3.6,108.9Zm7.2-72.68a.22.22,0,1,0-.22-.22A.22.22,0,0,0,10.8,36.22Zm0,14.5a.32.32,0,1,0-.32-.32A.32.32,0,0,0,10.8,50.72ZM7.2,145.34A1.34,1.34,0,1,0,5.86,144,1.34,1.34,0,0,0,7.2,145.34Zm0,14.6a1.54,1.54,0,1,0-1.54-1.54A1.54,1.54,0,0,0,7.2,159.94Zm0,14.62a1.76,1.76,0,1,0-1.76-1.76A1.76,1.76,0,0,0,7.2,174.56ZM10.8,21.74a.14.14,0,1,0-.14-.14A.14.14,0,0,0,10.8,21.74ZM10.88,7.2a.08.08,0,1,0-.08.08A.09.09,0,0,0,10.88,7.2ZM.1,14.4a.09.09,0,0,0-.1-.1v.2A.09.09,0,0,0,.1,14.4ZM2.22,201.6A2.23,2.23,0,0,0,0,199.38v4.44A2.23,2.23,0,0,0,2.22,201.6Zm.52,28.8A2.74,2.74,0,0,0,0,227.66v5.48A2.74,2.74,0,0,0,2.74,230.4ZM2.48,216A2.48,2.48,0,0,0,0,213.52v5A2.48,2.48,0,0,0,2.48,216ZM2,187.2a2,2,0,0,0-2-2v4A2,2,0,0,0,2,187.2Zm-.44-28.8A1.54,1.54,0,0,0,0,156.86v3.08A1.54,1.54,0,0,0,1.54,158.4ZM3.6,94.34a.74.74,0,1,0-.74-.74A.74.74,0,0,0,3.6,94.34Zm0,179.26A3.59,3.59,0,0,0,0,270v7.18A3.59,3.59,0,0,0,3.59,273.6ZM284.4,287.06a3.72,3.72,0,0,0-7.2,0,3.72,3.72,0,0,0-7.2,0,3.72,3.72,0,0,0-7.2,0,3.72,3.72,0,0,0-7.2,0,3.72,3.72,0,0,0-7.2,0,3.72,3.72,0,0,0-7.2,0,3.72,3.72,0,0,0-7.2,0,3.72,3.72,0,0,0-7.2,0,3.72,3.72,0,0,0-7.2,0,3.72,3.72,0,0,0-7.2,0,3.72,3.72,0,0,0-7.2,0,3.72,3.72,0,0,0-7.2,0,3.72,3.72,0,0,0-7.2,0,3.72,3.72,0,0,0-7.2,0,3.72,3.72,0,0,0-7.2,0,3.72,3.72,0,0,0-7.2,0,3.72,3.72,0,0,0-7.2,0,3.72,3.72,0,0,0-7.2,0,3.72,3.72,0,0,0-7.2,0,3.72,3.72,0,0,0-7.2,0,3.72,3.72,0,0,0-7.2,0,3.72,3.72,0,0,0-7.2,0,3.72,3.72,0,0,0-7.2,0,3.72,3.72,0,0,0-7.2,0,3.72,3.72,0,0,0-7.2,0,3.72,3.72,0,0,0-7.2,0,3.72,3.72,0,0,0-7.2,0,3.72,3.72,0,0,0-7.2,0,3.72,3.72,0,0,0-7.2,0,3.72,3.72,0,0,0-7.2,0,3.72,3.72,0,0,0-7.2,0,3.72,3.72,0,0,0-7.2,0,3.72,3.72,0,0,0-7.2,0,3.72,3.72,0,0,0-7.2,0,3.72,3.72,0,0,0-7.2,0,3.72,3.72,0,0,0-7.2,0,3.72,3.72,0,0,0-7.2,0,3.72,3.72,0,0,0-7.2,0,3.72,3.72,0,0,0-7.2,0A3.72,3.72,0,0,0,0,284.27V288H288v-3.73A3.72,3.72,0,0,0,284.4,287.06ZM3,244.8a3,3,0,0,0-3-3v6A3,3,0,0,0,3,244.8ZM10.8,108.9a.9.9,0,1,0-.9-.9A.9.9,0,0,0,10.8,108.9ZM3.29,259.2A3.29,3.29,0,0,0,0,255.91v6.58A3.29,3.29,0,0,0,3.29,259.2ZM1.34,144A1.34,1.34,0,0,0,0,142.66v2.68A1.34,1.34,0,0,0,1.34,144Zm.42,28.8A1.76,1.76,0,0,0,0,171v3.52A1.76,1.76,0,0,0,1.76,172.8ZM3.6,36.22A.22.22,0,1,0,3.38,36,.22.22,0,0,0,3.6,36.22Zm0,14.5a.32.32,0,1,0-.32-.32A.32.32,0,0,0,3.6,50.72Zm0,14.54a.46.46,0,1,0-.46-.46A.47.47,0,0,0,3.6,65.26ZM3.68,7.2a.08.08,0,1,0-.08.08A.09.09,0,0,0,3.68,7.2ZM3.6,79.78A.58.58,0,1,0,3,79.2.58.58,0,0,0,3.6,79.78ZM.52,72A.52.52,0,0,0,0,71.48v1A.52.52,0,0,0,.52,72Zm.3,28.8A.82.82,0,0,0,0,100v1.64A.82.82,0,0,0,.82,100.8ZM3.6,21.74a.14.14,0,1,0-.14-.14A.14.14,0,0,0,3.6,21.74ZM1,115.2a1,1,0,0,0-1-1v2A1,1,0,0,0,1,115.2Zm.18,14.4A1.16,1.16,0,0,0,0,128.44v2.32A1.16,1.16,0,0,0,1.16,129.6ZM.66,86.4A.67.67,0,0,0,0,85.74v1.32A.67.67,0,0,0,.66,86.4ZM25.2,79.78a.58.58,0,1,0-.58-.58A.58.58,0,0,0,25.2,79.78ZM21.6,29a.18.18,0,1,0-.18-.18A.18.18,0,0,0,21.6,29Zm0,58.08a.66.66,0,1,0-.66-.66A.67.67,0,0,0,21.6,87.06ZM21.6,58a.4.4,0,1,0-.4-.4A.4.4,0,0,0,21.6,58Zm0,14.52a.52.52,0,1,0-.52-.52A.52.52,0,0,0,21.6,72.52Zm0,43.66a1,1,0,1,0-1-1A1,1,0,0,0,21.6,116.18Zm0-14.56a.82.82,0,1,0-.82-.82A.82.82,0,0,0,21.6,101.62ZM10.8,123.46a1.06,1.06,0,1,0-1.06-1.06A1.07,1.07,0,0,0,10.8,123.46Zm7.2,0a1.06,1.06,0,1,0-1.06-1.06A1.07,1.07,0,0,0,18,123.46ZM18,138a1.24,1.24,0,1,0-1.24-1.24A1.25,1.25,0,0,0,18,138Zm0,14.6a1.44,1.44,0,1,0-1.44-1.44A1.45,1.45,0,0,0,18,152.64Zm3.6-21.88a1.16,1.16,0,1,0-1.16-1.16A1.16,1.16,0,0,0,21.6,130.76ZM18,167.26a1.66,1.66,0,1,0-1.66-1.66A1.66,1.66,0,0,0,18,167.26ZM21.6,43.48a.28.28,0,1,0-.28-.28A.29.29,0,0,0,21.6,43.48Zm93.6,43.58a.66.66,0,1,0-.66-.66A.67.67,0,0,0,115.2,87.06Zm-90-36.34a.32.32,0,1,0-.32-.32A.32.32,0,0,0,25.2,50.72Zm0,14.54a.46.46,0,1,0-.46-.46A.47.47,0,0,0,25.2,65.26Zm0,29.08a.74.74,0,1,0-.74-.74A.74.74,0,0,0,25.2,94.34Zm0,14.56a.9.9,0,1,0-.9-.9A.9.9,0,0,0,25.2,108.9Zm-3.6,36.44A1.34,1.34,0,1,0,20.26,144,1.34,1.34,0,0,0,21.6,145.34Zm0,14.6a1.54,1.54,0,1,0-1.54-1.54A1.54,1.54,0,0,0,21.6,159.94Zm0,14.62a1.76,1.76,0,1,0-1.76-1.76A1.76,1.76,0,0,0,21.6,174.56ZM25.2,21.74a.14.14,0,1,0-.14-.14A.14.14,0,0,0,25.2,21.74Zm0,14.48A.22.22,0,1,0,25,36,.22.22,0,0,0,25.2,36.22Zm.08-29a.08.08,0,1,0-.08.08A.09.09,0,0,0,25.28,7.2ZM18,178.12A1.88,1.88,0,1,0,19.88,180,1.88,1.88,0,0,0,18,178.12ZM14.4,72.52a.52.52,0,1,0-.52-.52A.52.52,0,0,0,14.4,72.52ZM14.4,58a.4.4,0,1,0-.4-.4A.4.4,0,0,0,14.4,58Zm0-29a.18.18,0,1,0-.18-.18A.18.18,0,0,0,14.4,29Zm0,87.2a1,1,0,1,0-1-1A1,1,0,0,0,14.4,116.18Zm0-14.56a.82.82,0,1,0-.82-.82A.82.82,0,0,0,14.4,101.62ZM18,108.9a.9.9,0,1,0-.9-.9A.9.9,0,0,0,18,108.9Zm-7.2,43.74a1.44,1.44,0,1,0-1.44-1.44A1.45,1.45,0,0,0,10.8,152.64Zm0-14.6a1.24,1.24,0,1,0-1.24-1.24A1.25,1.25,0,0,0,10.8,138Zm0,40.08A1.88,1.88,0,1,0,12.68,180,1.88,1.88,0,0,0,10.8,178.12Zm0-10.86a1.66,1.66,0,1,0-1.66-1.66A1.66,1.66,0,0,0,10.8,167.26ZM14.4,43.48a.28.28,0,1,0-.28-.28A.29.29,0,0,0,14.4,43.48Zm0,43.58a.66.66,0,1,0-.66-.66A.67.67,0,0,0,14.4,87.06ZM18,65.26a.46.46,0,1,0-.46-.46A.47.47,0,0,0,18,65.26Zm0-14.54a.32.32,0,1,0-.32-.32A.32.32,0,0,0,18,50.72Zm0,43.62a.74.74,0,1,0-.74-.74A.74.74,0,0,0,18,94.34Zm0-58.12a.22.22,0,1,0-.22-.22A.22.22,0,0,0,18,36.22Zm-3.6,94.54a1.16,1.16,0,1,0-1.16-1.16A1.16,1.16,0,0,0,14.4,130.76Zm3.6-51a.58.58,0,1,0-.58-.58A.58.58,0,0,0,18,79.78Zm-3.6,80.16a1.54,1.54,0,1,0-1.54-1.54A1.54,1.54,0,0,0,14.4,159.94ZM18.08,7.2a.08.08,0,1,0-.08.08A.09.09,0,0,0,18.08,7.2ZM14.4,145.34A1.34,1.34,0,1,0,13.06,144,1.34,1.34,0,0,0,14.4,145.34ZM18,21.74a.14.14,0,1,0-.14-.14A.14.14,0,0,0,18,21.74ZM14.4,174.56a1.76,1.76,0,1,0-1.76-1.76A1.76,1.76,0,0,0,14.4,174.56Zm10.8-51.1a1.06,1.06,0,1,0-1.06-1.06A1.07,1.07,0,0,0,25.2,123.46Zm68.4,36.48a1.54,1.54,0,1,0-1.54-1.54A1.54,1.54,0,0,0,93.6,159.94ZM97.28,7.2a.08.08,0,1,0-.08.08A.09.09,0,0,0,97.28,7.2ZM93.6,174.56a1.76,1.76,0,1,0-1.76-1.76A1.76,1.76,0,0,0,93.6,174.56ZM97.2,21.74a.14.14,0,1,0-.14-.14A.14.14,0,0,0,97.2,21.74Zm0,14.48A.22.22,0,1,0,97,36,.22.22,0,0,0,97.2,36.22Zm0,14.5a.32.32,0,1,0-.32-.32A.32.32,0,0,0,97.2,50.72Zm-3.6,94.62A1.34,1.34,0,1,0,92.26,144,1.34,1.34,0,0,0,93.6,145.34Zm3.6-80.08a.46.46,0,1,0-.46-.46A.47.47,0,0,0,97.2,65.26Zm-3.6,7.26a.52.52,0,1,0-.52-.52A.52.52,0,0,0,93.6,72.52Zm0,14.54a.66.66,0,1,0-.66-.66A.67.67,0,0,0,93.6,87.06Zm0,29.12a1,1,0,1,0-1-1A1,1,0,0,0,93.6,116.18Zm0,14.58a1.16,1.16,0,1,0-1.16-1.16A1.16,1.16,0,0,0,93.6,130.76Zm0-29.14a.82.82,0,1,0-.82-.82A.82.82,0,0,0,93.6,101.62Zm7.2-58.14a.28.28,0,1,0-.28-.28A.29.29,0,0,0,100.8,43.48ZM97.2,167.26a1.66,1.66,0,1,0-1.66-1.66A1.66,1.66,0,0,0,97.2,167.26Zm0,10.86A1.88,1.88,0,1,0,99.08,180,1.88,1.88,0,0,0,97.2,178.12ZM100.8,58a.4.4,0,1,0-.4-.4A.4.4,0,0,0,100.8,58Zm0-29a.18.18,0,1,0-.18-.18A.18.18,0,0,0,100.8,29ZM97.2,138A1.24,1.24,0,1,0,96,136.8,1.25,1.25,0,0,0,97.2,138ZM54,178.12A1.88,1.88,0,1,0,55.88,180,1.88,1.88,0,0,0,54,178.12Zm43.2-25.48a1.44,1.44,0,1,0-1.44-1.44A1.45,1.45,0,0,0,97.2,152.64Zm0-43.74a.9.9,0,1,0-.9-.9A.9.9,0,0,0,97.2,108.9Zm0,14.56a1.06,1.06,0,1,0-1.06-1.06A1.07,1.07,0,0,0,97.2,123.46Zm0-43.68a.58.58,0,1,0-.58-.58A.58.58,0,0,0,97.2,79.78Zm3.6-7.26a.52.52,0,1,0-.52-.52A.52.52,0,0,0,100.8,72.52ZM86.4,145.34A1.34,1.34,0,1,0,85.06,144,1.34,1.34,0,0,0,86.4,145.34ZM93.6,58a.4.4,0,1,0-.4-.4A.4.4,0,0,0,93.6,58ZM86.4,159.94a1.54,1.54,0,1,0-1.54-1.54A1.54,1.54,0,0,0,86.4,159.94ZM90,21.74a.14.14,0,1,0-.14-.14A.14.14,0,0,0,90,21.74Zm0,14.48a.22.22,0,1,0-.22-.22A.22.22,0,0,0,90,36.22Zm.08-29a.08.08,0,1,0-.08.08A.09.09,0,0,0,90.08,7.2ZM86.4,174.56a1.76,1.76,0,1,0-1.76-1.76A1.76,1.76,0,0,0,86.4,174.56Zm0-43.8a1.16,1.16,0,1,0-1.16-1.16A1.16,1.16,0,0,0,86.4,130.76Zm0-43.7a.66.66,0,1,0-.66-.66A.67.67,0,0,0,86.4,87.06Zm0-14.54a.52.52,0,1,0-.52-.52A.52.52,0,0,0,86.4,72.52Zm0,29.1a.82.82,0,1,0-.82-.82A.82.82,0,0,0,86.4,101.62Zm0,14.56a1,1,0,1,0-1-1A1,1,0,0,0,86.4,116.18ZM90,50.72a.32.32,0,1,0-.32-.32A.32.32,0,0,0,90,50.72Zm0,116.54a1.66,1.66,0,1,0-1.66-1.66A1.66,1.66,0,0,0,90,167.26Zm0,10.86A1.88,1.88,0,1,0,91.88,180,1.88,1.88,0,0,0,90,178.12ZM86.4,58a.4.4,0,1,0-.4-.4A.4.4,0,0,0,86.4,58ZM90,152.64a1.44,1.44,0,1,0-1.44-1.44A1.45,1.45,0,0,0,90,152.64ZM93.6,29a.18.18,0,1,0-.18-.18A.18.18,0,0,0,93.6,29ZM90,123.46a1.06,1.06,0,1,0-1.06-1.06A1.07,1.07,0,0,0,90,123.46Zm0-29.12a.74.74,0,1,0-.74-.74A.74.74,0,0,0,90,94.34Zm0-14.56a.58.58,0,1,0-.58-.58A.58.58,0,0,0,90,79.78Zm0-14.52a.46.46,0,1,0-.46-.46A.47.47,0,0,0,90,65.26Zm0,43.64a.9.9,0,1,0-.9-.9A.9.9,0,0,0,90,108.9ZM90,138a1.24,1.24,0,1,0-1.24-1.24A1.25,1.25,0,0,0,90,138Zm3.6-94.56a.28.28,0,1,0-.28-.28A.29.29,0,0,0,93.6,43.48ZM111.68,7.2a.08.08,0,1,0-.08.08A.09.09,0,0,0,111.68,7.2Zm-.08,14.54a.14.14,0,1,0-.14-.14A.14.14,0,0,0,111.6,21.74ZM108,174.56a1.76,1.76,0,1,0-1.76-1.76A1.76,1.76,0,0,0,108,174.56Zm3.6-138.34a.22.22,0,1,0-.22-.22A.22.22,0,0,0,111.6,36.22Zm0,14.5a.32.32,0,1,0-.32-.32A.32.32,0,0,0,111.6,50.72Zm0,14.54a.46.46,0,1,0-.46-.46A.47.47,0,0,0,111.6,65.26ZM108,116.18a1,1,0,1,0-1-1A1,1,0,0,0,108,116.18Zm3.6-36.4a.58.58,0,1,0-.58-.58A.58.58,0,0,0,111.6,79.78ZM108,101.62a.82.82,0,1,0-.82-.82A.82.82,0,0,0,108,101.62Zm0,58.32a1.54,1.54,0,1,0-1.54-1.54A1.54,1.54,0,0,0,108,159.94Zm0-14.6a1.34,1.34,0,1,0-1.34-1.34A1.34,1.34,0,0,0,108,145.34Zm0-14.58a1.16,1.16,0,1,0-1.16-1.16A1.16,1.16,0,0,0,108,130.76Zm3.6,7.28a1.24,1.24,0,1,0-1.24-1.24A1.25,1.25,0,0,0,111.6,138Zm3.6-94.56a.28.28,0,1,0-.28-.28A.29.29,0,0,0,115.2,43.48Zm0-14.5a.18.18,0,1,0-.18-.18A.18.18,0,0,0,115.2,29Zm0,43.54a.52.52,0,1,0-.52-.52A.52.52,0,0,0,115.2,72.52Zm0-14.52a.4.4,0,1,0-.4-.4A.4.4,0,0,0,115.2,58Zm-3.6,36.34a.74.74,0,1,0-.74-.74A.74.74,0,0,0,111.6,94.34Zm0,83.78a1.88,1.88,0,1,0,1.88,1.88A1.88,1.88,0,0,0,111.6,178.12Zm0-54.66a1.06,1.06,0,1,0-1.06-1.06A1.07,1.07,0,0,0,111.6,123.46Zm0-14.56a.9.9,0,1,0-.9-.9A.9.9,0,0,0,111.6,108.9ZM108,87.06a.66.66,0,1,0-.66-.66A.67.67,0,0,0,108,87.06Zm3.6,65.58a1.44,1.44,0,1,0-1.44-1.44A1.45,1.45,0,0,0,111.6,152.64Zm0,14.62a1.66,1.66,0,1,0-1.66-1.66A1.66,1.66,0,0,0,111.6,167.26ZM104.4,138a1.24,1.24,0,1,0-1.24-1.24A1.25,1.25,0,0,0,104.4,138ZM104.48,7.2a.08.08,0,1,0-.08.08A.09.09,0,0,0,104.48,7.2Zm-.08,14.54a.14.14,0,1,0-.14-.14A.14.14,0,0,0,104.4,21.74Zm0,29a.32.32,0,1,0-.32-.32A.32.32,0,0,0,104.4,50.72Zm-3.6,123.84A1.76,1.76,0,1,0,99,172.8,1.76,1.76,0,0,0,100.8,174.56Zm3.6-109.3a.46.46,0,1,0-.46-.46A.47.47,0,0,0,104.4,65.26Zm0-29a.22.22,0,1,0-.22-.22A.22.22,0,0,0,104.4,36.22Zm-3.6,123.72a1.54,1.54,0,1,0-1.54-1.54A1.54,1.54,0,0,0,100.8,159.94Zm0-58.32a.82.82,0,1,0-.82-.82A.82.82,0,0,0,100.8,101.62Zm0,14.56a1,1,0,1,0-1-1A1,1,0,0,0,100.8,116.18Zm0,14.58a1.16,1.16,0,1,0-1.16-1.16A1.16,1.16,0,0,0,100.8,130.76Zm0,14.58A1.34,1.34,0,1,0,99.46,144,1.34,1.34,0,0,0,100.8,145.34Zm3.6,21.92a1.66,1.66,0,1,0-1.66-1.66A1.66,1.66,0,0,0,104.4,167.26Zm0-87.48a.58.58,0,1,0-.58-.58A.58.58,0,0,0,104.4,79.78Zm3.6-36.3a.28.28,0,1,0-.28-.28A.29.29,0,0,0,108,43.48ZM108,58a.4.4,0,1,0-.4-.4A.4.4,0,0,0,108,58Zm0-29a.18.18,0,1,0-.18-.18A.18.18,0,0,0,108,29Zm0,43.54a.52.52,0,1,0-.52-.52A.52.52,0,0,0,108,72.52Zm-3.6,105.6a1.88,1.88,0,1,0,1.88,1.88A1.88,1.88,0,0,0,104.4,178.12Zm0-25.48A1.44,1.44,0,1,0,103,151.2,1.45,1.45,0,0,0,104.4,152.64Zm0-58.3a.74.74,0,1,0-.74-.74A.74.74,0,0,0,104.4,94.34Zm0,14.56a.9.9,0,1,0-.9-.9A.9.9,0,0,0,104.4,108.9Zm-3.6-21.84a.66.66,0,1,0-.66-.66A.67.67,0,0,0,100.8,87.06Zm3.6,36.4a1.06,1.06,0,1,0-1.06-1.06A1.07,1.07,0,0,0,104.4,123.46ZM97.2,94.34a.74.74,0,1,0-.74-.74A.74.74,0,0,0,97.2,94.34Zm-32.4,7.28a.82.82,0,1,0-.82-.82A.82.82,0,0,0,64.8,101.62Zm0,43.72A1.34,1.34,0,1,0,63.46,144,1.34,1.34,0,0,0,64.8,145.34Zm0-29.16a1,1,0,1,0-1-1A1,1,0,0,0,64.8,116.18Zm3.6-94.44a.14.14,0,1,0-.14-.14A.14.14,0,0,0,68.4,21.74Zm-3.6,138.2a1.54,1.54,0,1,0-1.54-1.54A1.54,1.54,0,0,0,64.8,159.94Zm0,14.62A1.76,1.76,0,1,0,63,172.8,1.76,1.76,0,0,0,64.8,174.56Zm0-43.8a1.16,1.16,0,1,0-1.16-1.16A1.16,1.16,0,0,0,64.8,130.76ZM64.8,29a.18.18,0,1,0-.18-.18A.18.18,0,0,0,64.8,29Zm0,14.5a.28.28,0,1,0-.28-.28A.29.29,0,0,0,64.8,43.48Zm0,43.58a.66.66,0,1,0-.66-.66A.67.67,0,0,0,64.8,87.06Zm0-14.54a.52.52,0,1,0-.52-.52A.52.52,0,0,0,64.8,72.52ZM64.8,58a.4.4,0,1,0-.4-.4A.4.4,0,0,0,64.8,58Zm3.6,94.64A1.44,1.44,0,1,0,67,151.2,1.45,1.45,0,0,0,68.4,152.64Zm0-29.18a1.06,1.06,0,1,0-1.06-1.06A1.07,1.07,0,0,0,68.4,123.46Zm0-14.56a.9.9,0,1,0-.9-.9A.9.9,0,0,0,68.4,108.9Zm0,29.14a1.24,1.24,0,1,0-1.24-1.24A1.25,1.25,0,0,0,68.4,138Zm-7.2,40.08A1.88,1.88,0,1,0,63.08,180,1.88,1.88,0,0,0,61.2,178.12Zm7.2-10.86a1.66,1.66,0,1,0-1.66-1.66A1.66,1.66,0,0,0,68.4,167.26ZM68.48,7.2a.08.08,0,1,0-.08.08A.09.09,0,0,0,68.48,7.2Zm-.08,29a.22.22,0,1,0-.22-.22A.22.22,0,0,0,68.4,36.22Zm0,14.5a.32.32,0,1,0-.32-.32A.32.32,0,0,0,68.4,50.72Zm0,14.54a.46.46,0,1,0-.46-.46A.47.47,0,0,0,68.4,65.26Zm0,14.52a.58.58,0,1,0-.58-.58A.58.58,0,0,0,68.4,79.78Zm0,14.56a.74.74,0,1,0-.74-.74A.74.74,0,0,0,68.4,94.34ZM61.2,36.22A.22.22,0,1,0,61,36,.22.22,0,0,0,61.2,36.22Zm-3.6,80a1,1,0,1,0-1-1A1,1,0,0,0,57.6,116.18Zm0-14.56a.82.82,0,1,0-.82-.82A.82.82,0,0,0,57.6,101.62Zm0,29.14a1.16,1.16,0,1,0-1.16-1.16A1.16,1.16,0,0,0,57.6,130.76Zm0,14.58A1.34,1.34,0,1,0,56.26,144,1.34,1.34,0,0,0,57.6,145.34Zm0,14.6a1.54,1.54,0,1,0-1.54-1.54A1.54,1.54,0,0,0,57.6,159.94Zm0-87.42a.52.52,0,1,0-.52-.52A.52.52,0,0,0,57.6,72.52Zm0-29a.28.28,0,1,0-.28-.28A.29.29,0,0,0,57.6,43.48Zm0-14.5a.18.18,0,1,0-.18-.18A.18.18,0,0,0,57.6,29Zm0,58.08a.66.66,0,1,0-.66-.66A.67.67,0,0,0,57.6,87.06Zm0,87.5a1.76,1.76,0,1,0-1.76-1.76A1.76,1.76,0,0,0,57.6,174.56Zm3.6-7.3a1.66,1.66,0,1,0-1.66-1.66A1.66,1.66,0,0,0,61.2,167.26ZM57.6,58a.4.4,0,1,0-.4-.4A.4.4,0,0,0,57.6,58Zm3.6,65.46a1.06,1.06,0,1,0-1.06-1.06A1.07,1.07,0,0,0,61.2,123.46Zm0-14.56a.9.9,0,1,0-.9-.9A.9.9,0,0,0,61.2,108.9Zm0-14.56a.74.74,0,1,0-.74-.74A.74.74,0,0,0,61.2,94.34Zm0,43.7A1.24,1.24,0,1,0,60,136.8,1.25,1.25,0,0,0,61.2,138Zm0,14.6a1.44,1.44,0,1,0-1.44-1.44A1.45,1.45,0,0,0,61.2,152.64Zm0-72.86a.58.58,0,1,0-.58-.58A.58.58,0,0,0,61.2,79.78Zm7.2,98.34A1.88,1.88,0,1,0,70.28,180,1.88,1.88,0,0,0,68.4,178.12ZM61.28,7.2a.08.08,0,1,0-.08.08A.09.09,0,0,0,61.28,7.2ZM61.2,50.72a.32.32,0,1,0-.32-.32A.32.32,0,0,0,61.2,50.72Zm0,14.54a.46.46,0,1,0-.46-.46A.47.47,0,0,0,61.2,65.26Zm0-43.52a.14.14,0,1,0-.14-.14A.14.14,0,0,0,61.2,21.74Zm21.6,130.9a1.44,1.44,0,1,0-1.44-1.44A1.45,1.45,0,0,0,82.8,152.64Zm-3.6,21.92a1.76,1.76,0,1,0-1.76-1.76A1.76,1.76,0,0,0,79.2,174.56Zm0-14.62a1.54,1.54,0,1,0-1.54-1.54A1.54,1.54,0,0,0,79.2,159.94Zm0-14.6A1.34,1.34,0,1,0,77.86,144,1.34,1.34,0,0,0,79.2,145.34Zm3.6-123.6a.14.14,0,1,0-.14-.14A.14.14,0,0,0,82.8,21.74ZM82.88,7.2a.08.08,0,1,0-.08.08A.09.09,0,0,0,82.88,7.2ZM79.2,130.76A1.16,1.16,0,1,0,78,129.6,1.16,1.16,0,0,0,79.2,130.76Zm0-29.14a.82.82,0,1,0-.82-.82A.82.82,0,0,0,79.2,101.62Zm0,14.56a1,1,0,1,0-1-1A1,1,0,0,0,79.2,116.18ZM79.2,58a.4.4,0,1,0-.4-.4A.4.4,0,0,0,79.2,58Zm0,14.52a.52.52,0,1,0-.52-.52A.52.52,0,0,0,79.2,72.52Zm3.6-36.3a.22.22,0,1,0-.22-.22A.22.22,0,0,0,82.8,36.22ZM72,43.48a.28.28,0,1,0-.28-.28A.29.29,0,0,0,72,43.48ZM82.8,108.9a.9.9,0,1,0-.9-.9A.9.9,0,0,0,82.8,108.9Zm0,58.36a1.66,1.66,0,1,0-1.66-1.66A1.66,1.66,0,0,0,82.8,167.26Zm0-116.54a.32.32,0,1,0-.32-.32A.32.32,0,0,0,82.8,50.72Zm0,127.4A1.88,1.88,0,1,0,84.68,180,1.88,1.88,0,0,0,82.8,178.12Zm0-40.08a1.24,1.24,0,1,0-1.24-1.24A1.25,1.25,0,0,0,82.8,138Zm3.6-94.56a.28.28,0,1,0-.28-.28A.29.29,0,0,0,86.4,43.48Zm0-14.5a.18.18,0,1,0-.18-.18A.18.18,0,0,0,86.4,29Zm-3.6,50.8a.58.58,0,1,0-.58-.58A.58.58,0,0,0,82.8,79.78Zm0,43.68a1.06,1.06,0,1,0-1.06-1.06A1.07,1.07,0,0,0,82.8,123.46Zm0-58.2a.46.46,0,1,0-.46-.46A.47.47,0,0,0,82.8,65.26Zm0,29.08a.74.74,0,1,0-.74-.74A.74.74,0,0,0,82.8,94.34ZM79.2,29A.18.18,0,1,0,79,28.8.18.18,0,0,0,79.2,29Zm0,58.08a.66.66,0,1,0-.66-.66A.67.67,0,0,0,79.2,87.06ZM72,159.94a1.54,1.54,0,1,0-1.54-1.54A1.54,1.54,0,0,0,72,159.94Zm0-14.6A1.34,1.34,0,1,0,70.66,144,1.34,1.34,0,0,0,72,145.34Zm0,29.22a1.76,1.76,0,1,0-1.76-1.76A1.76,1.76,0,0,0,72,174.56ZM75.6,21.74a.14.14,0,1,0-.14-.14A.14.14,0,0,0,75.6,21.74ZM72,116.18a1,1,0,1,0-1-1A1,1,0,0,0,72,116.18Zm3.68-109a.08.08,0,1,0-.08.08A.09.09,0,0,0,75.68,7.2ZM72,101.62a.82.82,0,1,0-.82-.82A.82.82,0,0,0,72,101.62ZM72,58a.4.4,0,1,0-.4-.4A.4.4,0,0,0,72,58Zm0-29a.18.18,0,1,0-.18-.18A.18.18,0,0,0,72,29Zm0,43.54a.52.52,0,1,0-.52-.52A.52.52,0,0,0,72,72.52Zm0,14.54a.66.66,0,1,0-.66-.66A.67.67,0,0,0,72,87.06Zm3.6,91.06A1.88,1.88,0,1,0,77.48,180,1.88,1.88,0,0,0,75.6,178.12Zm0-25.48a1.44,1.44,0,1,0-1.44-1.44A1.45,1.45,0,0,0,75.6,152.64Zm0-14.6a1.24,1.24,0,1,0-1.24-1.24A1.25,1.25,0,0,0,75.6,138Zm0,29.22a1.66,1.66,0,1,0-1.66-1.66A1.66,1.66,0,0,0,75.6,167.26ZM79.2,43.48a.28.28,0,1,0-.28-.28A.29.29,0,0,0,79.2,43.48Zm-3.6,80a1.06,1.06,0,1,0-1.06-1.06A1.07,1.07,0,0,0,75.6,123.46Zm0-72.74a.32.32,0,1,0-.32-.32A.32.32,0,0,0,75.6,50.72Zm0,58.18a.9.9,0,1,0-.9-.9A.9.9,0,0,0,75.6,108.9Zm0-72.68a.22.22,0,1,0-.22-.22A.22.22,0,0,0,75.6,36.22Zm0,29a.46.46,0,1,0-.46-.46A.47.47,0,0,0,75.6,65.26Zm0,29.08a.74.74,0,1,0-.74-.74A.74.74,0,0,0,75.6,94.34Zm0-14.56A.58.58,0,1,0,75,79.2.58.58,0,0,0,75.6,79.78Zm-3.6,51a1.16,1.16,0,1,0-1.16-1.16A1.16,1.16,0,0,0,72,130.76ZM230,252a3.15,3.15,0,1,0-3.15,3.15A3.15,3.15,0,0,0,230,252Zm21.6,0a3.15,3.15,0,1,0-3.15,3.15A3.15,3.15,0,0,0,251.55,252Zm.45,10.49a3.29,3.29,0,1,0-3.29-3.29A3.29,3.29,0,0,0,252,262.49ZM258.75,252a3.15,3.15,0,1,0-3.15,3.15A3.15,3.15,0,0,0,258.75,252Zm7.65,10.49a3.29,3.29,0,1,0-3.29-3.29A3.29,3.29,0,0,0,266.4,262.49ZM266,252a3.15,3.15,0,1,0-3.15,3.15A3.15,3.15,0,0,0,266,252ZM230.4,262.49a3.29,3.29,0,1,0-3.29-3.29A3.29,3.29,0,0,0,230.4,262.49ZM273.15,252a3.15,3.15,0,1,0-3.15,3.15A3.15,3.15,0,0,0,273.15,252ZM244.8,262.49a3.29,3.29,0,1,0-3.29-3.29A3.29,3.29,0,0,0,244.8,262.49ZM237.15,252a3.15,3.15,0,1,0-3.15,3.15A3.15,3.15,0,0,0,237.15,252ZM219.6,206.46a2.34,2.34,0,1,0,2.34,2.34A2.34,2.34,0,0,0,219.6,206.46ZM244.35,252a3.15,3.15,0,1,0-3.15,3.15A3.15,3.15,0,0,0,244.35,252ZM136.8,262.49a3.29,3.29,0,1,0-3.29-3.29A3.29,3.29,0,0,0,136.8,262.49Zm144-77.27a2,2,0,1,0,2,2A2,2,0,0,0,280.8,185.22Zm5.7,9.18a2.1,2.1,0,1,0-2.1,2.1A2.1,2.1,0,0,0,286.5,194.4Zm.24,14.4a2.34,2.34,0,1,0-2.34,2.34A2.34,2.34,0,0,0,286.74,208.8ZM273.6,262.49a3.29,3.29,0,1,0-3.29-3.29A3.29,3.29,0,0,0,273.6,262.49Zm0-77.27a2,2,0,1,0,2,2A2,2,0,0,0,273.6,185.22Zm5.7,9.18a2.1,2.1,0,1,0-2.1,2.1A2.1,2.1,0,0,0,279.3,194.4Zm1.5,68.09a3.29,3.29,0,1,0-3.29-3.29A3.29,3.29,0,0,0,280.8,262.49ZM287,223.2a2.6,2.6,0,1,0-2.6,2.6A2.61,2.61,0,0,0,287,223.2ZM280.35,252a3.15,3.15,0,1,0-3.15,3.15A3.15,3.15,0,0,0,280.35,252Zm6.91-14.4a2.86,2.86,0,1,0-2.86,2.85A2.86,2.86,0,0,0,287.26,237.6Zm.29,14.4a3.15,3.15,0,1,0-3.15,3.15A3.15,3.15,0,0,0,287.55,252ZM259.2,262.49a3.29,3.29,0,1,0-3.29-3.29A3.29,3.29,0,0,0,259.2,262.49ZM172.35,252a3.15,3.15,0,1,0-3.15,3.15A3.15,3.15,0,0,0,172.35,252Zm-6.75,10.49a3.29,3.29,0,1,0-3.29-3.29A3.29,3.29,0,0,0,165.6,262.49ZM165.15,252a3.15,3.15,0,1,0-3.15,3.15A3.15,3.15,0,0,0,165.15,252ZM180,262.49a3.29,3.29,0,1,0-3.29-3.29A3.29,3.29,0,0,0,180,262.49Zm-21.6,0a3.29,3.29,0,1,0-3.29-3.29A3.29,3.29,0,0,0,158.4,262.49ZM179.55,252a3.15,3.15,0,1,0-3.15,3.15A3.15,3.15,0,0,0,179.55,252Zm-6.75,10.49a3.29,3.29,0,1,0-3.29-3.29A3.29,3.29,0,0,0,172.8,262.49Zm-28.8,0a3.29,3.29,0,1,0-3.29-3.29A3.29,3.29,0,0,0,144,262.49ZM93.6,185.22a2,2,0,1,0,2,2A2,2,0,0,0,93.6,185.22Zm50,66.78a3.15,3.15,0,1,0-3.15,3.15A3.15,3.15,0,0,0,143.55,252Zm7.2,0a3.15,3.15,0,1,0-3.15,3.15A3.15,3.15,0,0,0,150.75,252Zm.45,10.49a3.29,3.29,0,1,0-3.29-3.29A3.29,3.29,0,0,0,151.2,262.49ZM194,252a3.15,3.15,0,1,0-3.15,3.15A3.15,3.15,0,0,0,194,252Zm14.85,10.49a3.29,3.29,0,1,0-3.29-3.29A3.29,3.29,0,0,0,208.8,262.49ZM208.35,252a3.15,3.15,0,1,0-3.15,3.15A3.15,3.15,0,0,0,208.35,252Zm7.2,0a3.15,3.15,0,1,0-3.15,3.15A3.15,3.15,0,0,0,215.55,252Zm.45,10.49a3.29,3.29,0,1,0-3.29-3.29A3.29,3.29,0,0,0,216,262.49ZM186.75,252a3.15,3.15,0,1,0-3.15,3.15A3.15,3.15,0,0,0,186.75,252Zm36,0a3.15,3.15,0,1,0-3.15,3.15A3.15,3.15,0,0,0,222.75,252Zm.45,10.49a3.29,3.29,0,1,0-3.29-3.29A3.29,3.29,0,0,0,223.2,262.49Zm-36,0a3.29,3.29,0,1,0-3.29-3.29A3.29,3.29,0,0,0,187.2,262.49Zm14.4,0a3.29,3.29,0,1,0-3.29-3.29A3.29,3.29,0,0,0,201.6,262.49Zm-7.2,0a3.29,3.29,0,1,0-3.29-3.29A3.29,3.29,0,0,0,194.4,262.49ZM201.15,252a3.15,3.15,0,1,0-3.15,3.15A3.15,3.15,0,0,0,201.15,252ZM270,192.3a2.1,2.1,0,1,0,2.1,2.1A2.1,2.1,0,0,0,270,192.3Zm-118.8-7.08a2,2,0,1,0,2,2A2,2,0,0,0,151.2,185.22Zm7.2,0a2,2,0,1,0,2,2A2,2,0,0,0,158.4,185.22Zm-3.6,7.08a2.1,2.1,0,1,0,2.1,2.1A2.1,2.1,0,0,0,154.8,192.3Zm-7.2,0a2.1,2.1,0,1,0,2.1,2.1A2.1,2.1,0,0,0,147.6,192.3Zm-3.6-7.08a2,2,0,1,0,2,2A2,2,0,0,0,144,185.22Zm-3.6,7.08a2.1,2.1,0,1,0,2.1,2.1A2.1,2.1,0,0,0,140.4,192.3Zm25.2-7.08a2,2,0,1,0,2,2A2,2,0,0,0,165.6,185.22Zm10.8,7.08a2.1,2.1,0,1,0,2.1,2.1A2.1,2.1,0,0,0,176.4,192.3Zm-14.4,0a2.1,2.1,0,1,0,2.1,2.1A2.1,2.1,0,0,0,162,192.3Zm10.8-7.08a2,2,0,1,0,2,2A2,2,0,0,0,172.8,185.22Zm-36,0a2,2,0,1,0,2,2A2,2,0,0,0,136.8,185.22Zm32.4,7.08a2.1,2.1,0,1,0,2.1,2.1A2.1,2.1,0,0,0,169.2,192.3Zm10.8-7.08a2,2,0,1,0,2,2A2,2,0,0,0,180,185.22Zm-72,0a2,2,0,1,0,2,2A2,2,0,0,0,108,185.22Zm-3.6,7.08a2.1,2.1,0,1,0,2.1,2.1A2.1,2.1,0,0,0,104.4,192.3Zm-7.2,0a2.1,2.1,0,1,0,2.1,2.1A2.1,2.1,0,0,0,97.2,192.3Zm14.4,0a2.1,2.1,0,1,0,2.1,2.1A2.1,2.1,0,0,0,111.6,192.3Zm-10.8-7.08a2,2,0,1,0,2,2A2,2,0,0,0,100.8,185.22Zm32.4,7.08a2.1,2.1,0,1,0,2.1,2.1A2.1,2.1,0,0,0,133.2,192.3Zm-3.6-7.08a2,2,0,1,0,2,2A2,2,0,0,0,129.6,185.22ZM126,192.3a2.1,2.1,0,1,0,2.1,2.1A2.1,2.1,0,0,0,126,192.3Zm140.4-7.08a2,2,0,1,0,2,2A2,2,0,0,0,266.4,185.22ZM118.8,192.3a2.1,2.1,0,1,0,2.1,2.1A2.1,2.1,0,0,0,118.8,192.3Zm-3.6-7.08a2,2,0,1,0,2,2A2,2,0,0,0,115.2,185.22Zm7.2,0a2,2,0,1,0,2,2A2,2,0,0,0,122.4,185.22Zm118.8,7.08a2.1,2.1,0,1,0,2.1,2.1A2.1,2.1,0,0,0,241.2,192.3Zm-3.6-7.08a2,2,0,1,0,2,2A2,2,0,0,0,237.6,185.22ZM234,192.3a2.1,2.1,0,1,0,2.1,2.1A2.1,2.1,0,0,0,234,192.3Zm10.8-7.08a2,2,0,1,0,2,2A2,2,0,0,0,244.8,185.22Zm-18,7.08a2.1,2.1,0,1,0,2.1,2.1A2.1,2.1,0,0,0,226.8,192.3Zm3.6-7.08a2,2,0,1,0,2,2A2,2,0,0,0,230.4,185.22Zm32.4,7.08a2.1,2.1,0,1,0,2.1,2.1A2.1,2.1,0,0,0,262.8,192.3Zm-3.6-7.08a2,2,0,1,0,2,2A2,2,0,0,0,259.2,185.22Zm-7.2,0a2,2,0,1,0,2,2A2,2,0,0,0,252,185.22Zm-3.6,7.08a2.1,2.1,0,1,0,2.1,2.1A2.1,2.1,0,0,0,248.4,192.3Zm7.2,0a2.1,2.1,0,1,0,2.1,2.1A2.1,2.1,0,0,0,255.6,192.3Zm-43.2,0a2.1,2.1,0,1,0,2.1,2.1A2.1,2.1,0,0,0,212.4,192.3Zm-18-7.08a2,2,0,1,0,2,2A2,2,0,0,0,194.4,185.22Zm3.6,7.08a2.1,2.1,0,1,0,2.1,2.1A2.1,2.1,0,0,0,198,192.3Zm-7.2,0a2.1,2.1,0,1,0,2.1,2.1A2.1,2.1,0,0,0,190.8,192.3Zm32.4-7.08a2,2,0,1,0,2,2A2,2,0,0,0,223.2,185.22Zm-21.6,0a2,2,0,1,0,2,2A2,2,0,0,0,201.6,185.22Zm-14.4,0a2,2,0,1,0,2,2A2,2,0,0,0,187.2,185.22Zm18,7.08a2.1,2.1,0,1,0,2.1,2.1A2.1,2.1,0,0,0,205.2,192.3Zm10.8-7.08a2,2,0,1,0,2,2A2,2,0,0,0,216,185.22Zm3.6,7.08a2.1,2.1,0,1,0,2.1,2.1A2.1,2.1,0,0,0,219.6,192.3Zm-36,0a2.1,2.1,0,1,0,2.1,2.1A2.1,2.1,0,0,0,183.6,192.3Zm25.2-7.08a2,2,0,1,0,2,2A2,2,0,0,0,208.8,185.22ZM158,252a3.15,3.15,0,1,0-3.15,3.15A3.15,3.15,0,0,0,158,252ZM97.2,206.46a2.34,2.34,0,1,0,2.34,2.34A2.34,2.34,0,0,0,97.2,206.46Zm-13-4.86a2.22,2.22,0,1,0,2.22-2.22A2.23,2.23,0,0,0,84.18,201.6Zm20.22,4.86a2.34,2.34,0,1,0,2.34,2.34A2.34,2.34,0,0,0,104.4,206.46Zm-5.82-4.86a2.22,2.22,0,1,0,2.22-2.22A2.23,2.23,0,0,0,98.58,201.6Zm-7.2,0a2.22,2.22,0,1,0,2.22-2.22A2.23,2.23,0,0,0,91.38,201.6ZM90,206.46a2.34,2.34,0,1,0,2.34,2.34A2.34,2.34,0,0,0,90,206.46Zm15.78-4.86a2.22,2.22,0,1,0,2.22-2.22A2.23,2.23,0,0,0,105.78,201.6Zm14.4,0a2.22,2.22,0,1,0,2.22-2.22A2.23,2.23,0,0,0,120.18,201.6Zm5.82,4.86a2.34,2.34,0,1,0,2.34,2.34A2.34,2.34,0,0,0,126,206.46Zm-13-4.86a2.22,2.22,0,1,0,2.22-2.22A2.23,2.23,0,0,0,113,201.6Zm5.82,4.86a2.34,2.34,0,1,0,2.34,2.34A2.34,2.34,0,0,0,118.8,206.46Zm-7.2,0a2.34,2.34,0,1,0,2.34,2.34A2.34,2.34,0,0,0,111.6,206.46Zm-36,0a2.34,2.34,0,1,0,2.34,2.34A2.34,2.34,0,0,0,75.6,206.46Zm-14.4,0a2.34,2.34,0,1,0,2.34,2.34A2.34,2.34,0,0,0,61.2,206.46Zm-7.2,0a2.34,2.34,0,1,0,2.34,2.34A2.34,2.34,0,0,0,54,206.46Zm1.38-4.86a2.22,2.22,0,1,0,2.22-2.22A2.23,2.23,0,0,0,55.38,201.6Zm-7.2,0a2.22,2.22,0,1,0,2.22-2.22A2.23,2.23,0,0,0,48.18,201.6Zm-7.2,0a2.22,2.22,0,1,0,2.22-2.22A2.23,2.23,0,0,0,41,201.6Zm5.82,4.86a2.34,2.34,0,1,0,2.34,2.34A2.34,2.34,0,0,0,46.8,206.46Zm80.58-4.86a2.22,2.22,0,1,0,2.22-2.22A2.23,2.23,0,0,0,127.38,201.6Zm-50.4,0a2.22,2.22,0,1,0,2.22-2.22A2.23,2.23,0,0,0,77,201.6Zm-7.2,0A2.22,2.22,0,1,0,72,199.38,2.23,2.23,0,0,0,69.78,201.6Zm-1.38,4.86a2.34,2.34,0,1,0,2.34,2.34A2.34,2.34,0,0,0,68.4,206.46Zm-5.82-4.86a2.22,2.22,0,1,0,2.22-2.22A2.23,2.23,0,0,0,62.58,201.6Zm20.22,4.86a2.34,2.34,0,1,0,2.34,2.34A2.34,2.34,0,0,0,82.8,206.46ZM185,201.6a2.22,2.22,0,1,0,2.22-2.22A2.23,2.23,0,0,0,185,201.6Zm5.82,4.86a2.34,2.34,0,1,0,2.34,2.34A2.34,2.34,0,0,0,190.8,206.46Zm7.2,0a2.34,2.34,0,1,0,2.34,2.34A2.34,2.34,0,0,0,198,206.46Zm-5.82-4.86a2.22,2.22,0,1,0,2.22-2.22A2.23,2.23,0,0,0,192.18,201.6Zm-8.58,4.86a2.34,2.34,0,1,0,2.34,2.34A2.34,2.34,0,0,0,183.6,206.46Zm-5.82-4.86a2.22,2.22,0,1,0,2.22-2.22A2.23,2.23,0,0,0,177.78,201.6Zm28.8,0a2.22,2.22,0,1,0,2.22-2.22A2.23,2.23,0,0,0,206.58,201.6Zm5.82,4.86a2.34,2.34,0,1,0,2.34,2.34A2.34,2.34,0,0,0,212.4,206.46Zm1.38-4.86a2.22,2.22,0,1,0,2.22-2.22A2.23,2.23,0,0,0,213.78,201.6Zm-37.38,4.86a2.34,2.34,0,1,0,2.34,2.34A2.34,2.34,0,0,0,176.4,206.46Zm28.8,0a2.34,2.34,0,1,0,2.34,2.34A2.34,2.34,0,0,0,205.2,206.46Zm-5.82-4.86a2.22,2.22,0,1,0,2.22-2.22A2.23,2.23,0,0,0,199.38,201.6Zm-57.6,0a2.22,2.22,0,1,0,2.22-2.22A2.23,2.23,0,0,0,141.78,201.6Zm5.82,4.86a2.34,2.34,0,1,0,2.34,2.34A2.34,2.34,0,0,0,147.6,206.46ZM149,201.6a2.22,2.22,0,1,0,2.22-2.22A2.23,2.23,0,0,0,149,201.6Zm-15.78,4.86a2.34,2.34,0,1,0,2.34,2.34A2.34,2.34,0,0,0,133.2,206.46Zm7.2,0a2.34,2.34,0,1,0,2.34,2.34A2.34,2.34,0,0,0,140.4,206.46Zm-5.82-4.86a2.22,2.22,0,1,0,2.22-2.22A2.23,2.23,0,0,0,134.58,201.6Zm36,0a2.22,2.22,0,1,0,2.22-2.22A2.23,2.23,0,0,0,170.58,201.6Zm-1.38,4.86a2.34,2.34,0,1,0,2.34,2.34A2.34,2.34,0,0,0,169.2,206.46Zm-5.82-4.86a2.22,2.22,0,1,0,2.22-2.22A2.23,2.23,0,0,0,163.38,201.6Zm-7.2,0a2.22,2.22,0,1,0,2.22-2.22A2.23,2.23,0,0,0,156.18,201.6Zm5.82,4.86a2.34,2.34,0,1,0,2.34,2.34A2.34,2.34,0,0,0,162,206.46Zm-7.2,0a2.34,2.34,0,1,0,2.34,2.34A2.34,2.34,0,0,0,154.8,206.46Zm-129.6,0a2.34,2.34,0,1,0,2.34,2.34A2.34,2.34,0,0,0,25.2,206.46ZM78.75,252a3.15,3.15,0,1,0-3.15,3.15A3.15,3.15,0,0,0,78.75,252ZM72,262.49a3.29,3.29,0,1,0-3.29-3.29A3.29,3.29,0,0,0,72,262.49ZM93.15,252A3.15,3.15,0,1,0,90,255.15,3.15,3.15,0,0,0,93.15,252ZM86.4,262.49a3.29,3.29,0,1,0-3.29-3.29A3.29,3.29,0,0,0,86.4,262.49ZM71.55,252a3.15,3.15,0,1,0-3.15,3.15A3.15,3.15,0,0,0,71.55,252ZM86,252a3.15,3.15,0,1,0-3.15,3.15A3.15,3.15,0,0,0,86,252ZM79.2,262.49a3.29,3.29,0,1,0-3.29-3.29A3.29,3.29,0,0,0,79.2,262.49Zm-14.4,0a3.29,3.29,0,1,0-3.29-3.29A3.29,3.29,0,0,0,64.8,262.49Zm-14.4,0a3.29,3.29,0,1,0-3.29-3.29A3.29,3.29,0,0,0,50.4,262.49ZM57.15,252A3.15,3.15,0,1,0,54,255.15,3.15,3.15,0,0,0,57.15,252Zm.45,10.49a3.29,3.29,0,1,0-3.29-3.29A3.29,3.29,0,0,0,57.6,262.49ZM64.35,252a3.15,3.15,0,1,0-3.15,3.15A3.15,3.15,0,0,0,64.35,252ZM39.6,206.46a2.34,2.34,0,1,0,2.34,2.34A2.34,2.34,0,0,0,39.6,206.46Zm82.8,56a3.29,3.29,0,1,0-3.29-3.29A3.29,3.29,0,0,0,122.4,262.49ZM122,252a3.15,3.15,0,1,0-3.15,3.15A3.15,3.15,0,0,0,122,252Zm-6.75,10.49a3.29,3.29,0,1,0-3.29-3.29A3.29,3.29,0,0,0,115.2,262.49Zm14-10.49a3.15,3.15,0,1,0-3.15,3.15A3.15,3.15,0,0,0,129.15,252Zm.45,10.49a3.29,3.29,0,1,0-3.29-3.29A3.29,3.29,0,0,0,129.6,262.49Zm-22-10.49a3.15,3.15,0,1,0-3.15,3.15A3.15,3.15,0,0,0,107.55,252Zm7.2,0a3.15,3.15,0,1,0-3.15,3.15A3.15,3.15,0,0,0,114.75,252ZM50,252a3.15,3.15,0,1,0-3.15,3.15A3.15,3.15,0,0,0,50,252Zm50.85,10.49a3.29,3.29,0,1,0-3.29-3.29A3.29,3.29,0,0,0,100.8,262.49Zm-7.2,0a3.29,3.29,0,1,0-3.29-3.29A3.29,3.29,0,0,0,93.6,262.49Zm14.4,0a3.29,3.29,0,1,0-3.29-3.29A3.29,3.29,0,0,0,108,262.49ZM100.35,252a3.15,3.15,0,1,0-3.15,3.15A3.15,3.15,0,0,0,100.35,252ZM10.8,206.46a2.34,2.34,0,1,0,2.34,2.34A2.34,2.34,0,0,0,10.8,206.46Zm7.2,0a2.34,2.34,0,1,0,2.34,2.34A2.34,2.34,0,0,0,18,206.46Zm-5.82-4.86a2.22,2.22,0,1,0,2.22-2.22A2.23,2.23,0,0,0,12.18,201.6Zm-7.2,0a2.22,2.22,0,1,0,2.22-2.22A2.23,2.23,0,0,0,5,201.6Zm-.52,28.8a2.74,2.74,0,1,0,2.74-2.74A2.74,2.74,0,0,0,4.46,230.4ZM4.72,216a2.48,2.48,0,1,0,2.48-2.48A2.48,2.48,0,0,0,4.72,216Zm29.06-14.4A2.22,2.22,0,1,0,36,199.38,2.23,2.23,0,0,0,33.78,201.6Zm-1.38,4.86a2.34,2.34,0,1,0,2.34,2.34A2.34,2.34,0,0,0,32.4,206.46Zm10.8,56a3.29,3.29,0,1,0-3.29-3.29A3.29,3.29,0,0,0,43.2,262.49ZM19.38,201.6a2.22,2.22,0,1,0,2.22-2.22A2.23,2.23,0,0,0,19.38,201.6Zm117,50.4a3.15,3.15,0,1,0-3.15,3.15A3.15,3.15,0,0,0,136.35,252ZM26.58,201.6a2.22,2.22,0,1,0,2.22-2.22A2.23,2.23,0,0,0,26.58,201.6Zm2.22,60.89a3.29,3.29,0,1,0-3.29-3.29A3.29,3.29,0,0,0,28.8,262.49ZM35.55,252a3.15,3.15,0,1,0-3.15,3.15A3.15,3.15,0,0,0,35.55,252Zm-7.2,0a3.15,3.15,0,1,0-3.15,3.15A3.15,3.15,0,0,0,28.35,252ZM4.21,244.8a3,3,0,1,0,3-3A3,3,0,0,0,4.21,244.8ZM42.75,252a3.15,3.15,0,1,0-3.15,3.15A3.15,3.15,0,0,0,42.75,252ZM36,262.49a3.29,3.29,0,1,0-3.29-3.29A3.29,3.29,0,0,0,36,262.49ZM3.91,259.2a3.29,3.29,0,1,0,3.29-3.29A3.29,3.29,0,0,0,3.91,259.2ZM14,252a3.15,3.15,0,1,0-3.15,3.15A3.15,3.15,0,0,0,14,252Zm7.2,0A3.15,3.15,0,1,0,18,255.15,3.15,3.15,0,0,0,21.15,252ZM14.4,262.49a3.29,3.29,0,1,0-3.29-3.29A3.29,3.29,0,0,0,14.4,262.49Zm7.2,0a3.29,3.29,0,1,0-3.29-3.29A3.29,3.29,0,0,0,21.6,262.49Zm216,0a3.29,3.29,0,1,0-3.29-3.29A3.29,3.29,0,0,0,237.6,262.49Zm-72-248a.1.1,0,1,0-.1-.1A.09.09,0,0,0,165.6,14.5Zm-14.4,0a.1.1,0,1,0,0-.2.1.1,0,0,0,0,.2Zm7.2,0a.1.1,0,1,0-.1-.1A.09.09,0,0,0,158.4,14.5Zm-14.4,0a.1.1,0,1,0-.1-.1A.09.09,0,0,0,144,14.5Zm-7.2,0a.1.1,0,1,0-.1-.1A.09.09,0,0,0,136.8,14.5Zm-7.2,0a.1.1,0,1,0-.1-.1A.09.09,0,0,0,129.6,14.5Zm43.2,0a.1.1,0,1,0-.1-.1A.09.09,0,0,0,172.8,14.5Zm21.6,0a.1.1,0,1,0-.1-.1A.09.09,0,0,0,194.4,14.5Zm7.2,0a.1.1,0,1,0-.1-.1A.09.09,0,0,0,201.6,14.5Zm-79.2,0a.1.1,0,1,0-.1-.1A.09.09,0,0,0,122.4,14.5Zm64.8,0a.1.1,0,1,0,0-.2.1.1,0,0,0,0,.2Zm-7.2,0a.1.1,0,1,0-.1-.1A.09.09,0,0,0,180,14.5Zm-122.4,0a.1.1,0,1,0-.1-.1A.09.09,0,0,0,57.6,14.5Zm7.2,0a.1.1,0,1,0-.1-.1A.09.09,0,0,0,64.8,14.5Zm144,0a.1.1,0,1,0-.1-.1A.09.09,0,0,0,208.8,14.5Zm-158.4,0a.1.1,0,1,0-.1-.1A.09.09,0,0,0,50.4,14.5Zm-7.2,0a.1.1,0,0,0,0-.2.1.1,0,0,0,0,.2Zm28.8,0a.1.1,0,1,0-.1-.1A.09.09,0,0,0,72,14.5Zm36,0a.1.1,0,1,0-.1-.1A.09.09,0,0,0,108,14.5Zm-28.8,0a.1.1,0,1,0,0-.2.1.1,0,0,0,0,.2Zm21.6,0a.1.1,0,1,0-.1-.1A.09.09,0,0,0,100.8,14.5Zm14.4,0a.1.1,0,1,0,0-.2.1.1,0,0,0,0,.2Zm-21.6,0a.1.1,0,1,0-.1-.1A.09.09,0,0,0,93.6,14.5Zm-7.2,0a.1.1,0,1,0-.1-.1A.09.09,0,0,0,86.4,14.5Zm129.6,0a.1.1,0,1,0-.1-.1A.09.09,0,0,0,216,14.5Zm64.65,251.9a3.45,3.45,0,1,0-3.45,3.45A3.44,3.44,0,0,0,280.65,266.4Zm.15,10.79a3.59,3.59,0,1,0-3.59-3.59A3.59,3.59,0,0,0,280.8,277.19Zm3.6-.12a3.72,3.72,0,0,0-3.6,2.79,3.72,3.72,0,0,0-7.2,0,3.72,3.72,0,0,0-7.2,0,3.72,3.72,0,0,0-7.2,0,3.72,3.72,0,0,0-7.2,0,3.72,3.72,0,0,0-7.2,0,3.72,3.72,0,0,0-7.2,0,3.72,3.72,0,0,0-7.2,0,3.72,3.72,0,0,0-7.2,0,3.72,3.72,0,0,0-7.2,0,3.72,3.72,0,0,0-7.2,0,3.72,3.72,0,0,0-7.2,0,3.72,3.72,0,0,0-7.2,0,3.72,3.72,0,0,0-7.2,0,3.72,3.72,0,0,0-7.2,0,3.72,3.72,0,0,0-7.2,0,3.72,3.72,0,0,0-7.2,0,3.72,3.72,0,0,0-7.2,0,3.72,3.72,0,0,0-7.2,0,3.72,3.72,0,0,0-7.2,0,3.72,3.72,0,0,0-7.2,0,3.72,3.72,0,0,0-7.2,0,3.72,3.72,0,0,0-7.2,0,3.72,3.72,0,0,0-7.2,0,3.72,3.72,0,0,0-7.2,0,3.72,3.72,0,0,0-7.2,0,3.72,3.72,0,0,0-7.2,0,3.72,3.72,0,0,0-7.2,0,3.72,3.72,0,0,0-7.2,0,3.72,3.72,0,0,0-7.2,0,3.72,3.72,0,0,0-7.2,0,3.72,3.72,0,0,0-7.2,0,3.72,3.72,0,0,0-7.2,0,3.72,3.72,0,0,0-7.2,0,3.72,3.72,0,0,0-7.2,0,3.72,3.72,0,0,0-7.2,0,3.72,3.72,0,0,0-7.2,0,3.72,3.72,0,0,0-7.2,0,3.72,3.72,0,0,0-7.2,0,3.72,3.72,0,0,0-7.2,0v1.88a3.72,3.72,0,0,0,7.2,0,3.72,3.72,0,0,0,7.2,0,3.72,3.72,0,0,0,7.2,0,3.72,3.72,0,0,0,7.2,0,3.72,3.72,0,0,0,7.2,0,3.72,3.72,0,0,0,7.2,0,3.72,3.72,0,0,0,7.2,0,3.72,3.72,0,0,0,7.2,0,3.72,3.72,0,0,0,7.2,0,3.72,3.72,0,0,0,7.2,0,3.72,3.72,0,0,0,7.2,0,3.72,3.72,0,0,0,7.2,0,3.72,3.72,0,0,0,7.2,0,3.72,3.72,0,0,0,7.2,0,3.72,3.72,0,0,0,7.2,0,3.72,3.72,0,0,0,7.2,0,3.72,3.72,0,0,0,7.2,0,3.72,3.72,0,0,0,7.2,0,3.72,3.72,0,0,0,7.2,0,3.72,3.72,0,0,0,7.2,0,3.72,3.72,0,0,0,7.2,0,3.72,3.72,0,0,0,7.2,0,3.72,3.72,0,0,0,7.2,0,3.72,3.72,0,0,0,7.2,0,3.72,3.72,0,0,0,7.2,0,3.72,3.72,0,0,0,7.2,0,3.72,3.72,0,0,0,7.2,0,3.72,3.72,0,0,0,7.2,0,3.72,3.72,0,0,0,7.2,0,3.72,3.72,0,0,0,7.2,0,3.72,3.72,0,0,0,7.2,0,3.72,3.72,0,0,0,7.2,0,3.72,3.72,0,0,0,7.2,0,3.72,3.72,0,0,0,7.2,0,3.72,3.72,0,0,0,7.2,0,3.72,3.72,0,0,0,7.2,0,3.72,3.72,0,0,0,7.2,0,3.72,3.72,0,0,0,7.2,0,3.72,3.72,0,0,0,7.2,0,3.72,3.72,0,0,0,7.2,0v-1.88A3.72,3.72,0,0,0,284.4,277.07Zm3.45-10.67a3.45,3.45,0,1,0-3.45,3.45A3.44,3.44,0,0,0,287.85,266.4ZM287.6,57.6a.4.4,0,0,0,.4.4v-.8A.4.4,0,0,0,287.6,57.6Zm-3.19,216a3.59,3.59,0,0,0,3.59,3.59V270A3.59,3.59,0,0,0,284.41,273.6Zm-25.21,3.59a3.59,3.59,0,1,0-3.59-3.59A3.59,3.59,0,0,0,259.2,277.19Zm28.52-234a.29.29,0,0,0,.28.28v-.56A.29.29,0,0,0,287.72,43.2ZM266.25,266.4a3.45,3.45,0,1,0-3.45,3.45A3.44,3.44,0,0,0,266.25,266.4ZM36,14.5a.1.1,0,1,0-.1-.1A.09.09,0,0,0,36,14.5ZM273.45,266.4a3.45,3.45,0,1,0-3.45,3.45A3.44,3.44,0,0,0,273.45,266.4Zm.15,10.79A3.59,3.59,0,1,0,270,273.6,3.59,3.59,0,0,0,273.6,277.19Zm-7.2,0a3.59,3.59,0,1,0-3.59-3.59A3.59,3.59,0,0,0,266.4,277.19ZM252,14.5a.1.1,0,1,0-.1-.1A.09.09,0,0,0,252,14.5Zm-14.4,0a.1.1,0,1,0-.1-.1A.09.09,0,0,0,237.6,14.5Zm7.2,0a.1.1,0,1,0-.1-.1A.09.09,0,0,0,244.8,14.5Zm-14.4,0a.1.1,0,1,0-.1-.1A.09.09,0,0,0,230.4,14.5Zm57.42,14.3A.18.18,0,0,0,288,29v-.36A.18.18,0,0,0,287.82,28.8ZM223.2,14.5a.1.1,0,1,0,0-.2.1.1,0,0,0,0,.2Zm64.7-.1a.09.09,0,0,0,.1.1v-.2A.09.09,0,0,0,287.9,14.4Zm-7.1.1a.1.1,0,1,0-.1-.1A.09.09,0,0,0,280.8,14.5Zm-21.6,0a.1.1,0,1,0,0-.2.1.1,0,0,0,0,.2Zm14.4,0a.1.1,0,1,0-.1-.1A.09.09,0,0,0,273.6,14.5Zm-7.2,0a.1.1,0,1,0-.1-.1A.09.09,0,0,0,266.4,14.5Zm-7.35,251.9a3.45,3.45,0,1,0-3.45,3.45A3.44,3.44,0,0,0,259.05,266.4ZM100.84,0h-.08a0,0,0,0,0,0,0A0,0,0,0,0,100.84,0ZM108,0H108a0,0,0,0,0,0,0A0,0,0,0,0,108,0Zm7.2,0h-.08a0,0,0,0,0,0,0A0,0,0,0,0,115.24,0Zm7.2,0h-.08a0,0,0,0,0,0,0A0,0,0,0,0,122.44,0ZM28.8,14.5a.1.1,0,1,0-.1-.1A.09.09,0,0,0,28.8,14.5ZM93.64,0h-.08a0,0,0,0,0,0,0A0,0,0,0,0,93.64,0ZM144,0H144a0,0,0,0,0,0,0A0,0,0,0,0,144,0Zm14.4,0h-.08a0,0,0,0,0,0,0A0,0,0,0,0,158.44,0Zm-7.2,0h-.08a0,0,0,0,0,0,0A0,0,0,0,0,151.24,0Zm-21.6,0h-.08a0,0,0,0,0,0,0A0,0,0,0,0,129.64,0ZM79.24,0h-.08a0,0,0,0,0,0,0A0,0,0,0,0,79.24,0Zm57.6,0h-.08a0,0,0,0,0,0,0A0,0,0,0,0,136.84,0Zm-108,0h-.08a0,0,0,0,0,0,0A0,0,0,0,0,28.84,0Zm136.8,0h-.08a0,0,0,0,0,0,0A0,0,0,0,0,165.64,0ZM14.44,0h-.08a0,0,0,0,0,0,0A0,0,0,0,0,14.44,0Zm7.2,0h-.08a0,0,0,0,0,0,0A0,0,0,0,0,21.64,0ZM0,0V0A0,0,0,0,0,0,0ZM7.24,0H7.16a0,0,0,0,0,0,0A0,0,0,0,0,7.24,0Zm50.4,0h-.08a0,0,0,0,0,0,0A0,0,0,0,0,57.64,0ZM72,0H72a0,0,0,0,0,0,0A0,0,0,0,0,72,0Zm-7.2,0h-.08a0,0,0,0,0,0,0A0,0,0,0,0,64.84,0ZM50.44,0h-.08a0,0,0,0,0,0,0A0,0,0,0,0,50.44,0Zm-7.2,0h-.08a0,0,0,0,0,0,0A0,0,0,0,0,43.24,0ZM36,0H36a0,0,0,0,0,0,0A0,0,0,0,0,36,0Zm50.4,0h-.08a0,0,0,0,0,0,0A0,0,0,0,0,86.44,0ZM288,0a0,0,0,0,0,0,0V0Zm-7.12,0h-.08a0,0,0,0,0,0,0A0,0,0,0,0,280.84,0Zm-108,0h-.08a0,0,0,0,0,0,0A0,0,0,0,0,172.84,0Zm100.8,0h-.08a0,0,0,0,0,0,0A0,0,0,0,0,273.64,0Zm-7.2,0h-.08a0,0,0,0,0,0,0A0,0,0,0,0,266.44,0ZM21.6,14.5a.1.1,0,1,0-.1-.1A.09.09,0,0,0,21.6,14.5Zm-7.2,0a.1.1,0,1,0-.1-.1A.09.09,0,0,0,14.4,14.5ZM259.24,0h-.08a0,0,0,0,0,0,0A0,0,0,0,0,259.24,0ZM7.2,14.5a.1.1,0,1,0,0-.2.1.1,0,0,0,0,.2Zm-7,14.3A.18.18,0,0,0,0,28.62V29A.18.18,0,0,0,.18,28.8Zm.1,14.4A.29.29,0,0,0,0,42.92v.56A.29.29,0,0,0,.28,43.2ZM.4,57.6a.4.4,0,0,0-.4-.4V58A.4.4,0,0,0,.4,57.6ZM252,0H252a0,0,0,0,0,0,0A0,0,0,0,0,252,0Zm-43.2,0h-.08a0,0,0,0,0,0,0A0,0,0,0,0,208.84,0Zm-7.2,0h-.08a0,0,0,0,0,0,0A0,0,0,0,0,201.64,0Zm-14.4,0h-.08a0,0,0,0,0,0,0A0,0,0,0,0,187.24,0ZM180,0H180a0,0,0,0,0,0,0A0,0,0,0,0,180,0Zm14.4,0h-.08a0,0,0,0,0,0,0A0,0,0,0,0,194.44,0Zm43.2,0h-.08a0,0,0,0,0,0,0A0,0,0,0,0,237.64,0Zm7.2,0h-.08a0,0,0,0,0,0,0A0,0,0,0,0,244.84,0Zm-21.6,0h-.08a0,0,0,0,0,0,0A0,0,0,0,0,223.24,0Zm7.2,0h-.08a0,0,0,0,0,0,0A0,0,0,0,0,230.44,0ZM216,0H216a0,0,0,0,0,0,0A0,0,0,0,0,216,0ZM39.6,192.3a2.1,2.1,0,1,0,2.1,2.1A2.1,2.1,0,0,0,39.6,192.3ZM21.45,266.4A3.45,3.45,0,1,0,18,269.85,3.44,3.44,0,0,0,21.45,266.4Zm.15,10.79A3.59,3.59,0,1,0,18,273.6,3.59,3.59,0,0,0,21.6,277.19ZM14.25,266.4a3.45,3.45,0,1,0-3.45,3.45A3.44,3.44,0,0,0,14.25,266.4Zm.15,10.79a3.59,3.59,0,1,0-3.59-3.59A3.59,3.59,0,0,0,14.4,277.19ZM28.65,266.4a3.45,3.45,0,1,0-3.45,3.45A3.44,3.44,0,0,0,28.65,266.4Zm.15,10.79a3.59,3.59,0,1,0-3.59-3.59A3.59,3.59,0,0,0,28.8,277.19ZM.75,237.6a2.86,2.86,0,1,0,2.85-2.86A2.84,2.84,0,0,0,.75,237.6ZM1,223.2a2.6,2.6,0,1,0,2.6-2.6A2.61,2.61,0,0,0,1,223.2Zm34.85,43.2a3.45,3.45,0,1,0-3.45,3.45A3.44,3.44,0,0,0,35.85,266.4Zm-35.7,0A3.45,3.45,0,1,0,3.6,263,3.44,3.44,0,0,0,.15,266.4ZM7.2,277.19a3.59,3.59,0,1,0-3.59-3.59A3.59,3.59,0,0,0,7.2,277.19ZM.45,252a3.15,3.15,0,1,0,3.15-3.15A3.15,3.15,0,0,0,.45,252Zm57,14.4A3.45,3.45,0,1,0,54,269.85,3.44,3.44,0,0,0,57.45,266.4Zm7.2,0a3.45,3.45,0,1,0-3.45,3.45A3.44,3.44,0,0,0,64.65,266.4Zm.15,10.79a3.59,3.59,0,1,0-3.59-3.59A3.59,3.59,0,0,0,64.8,277.19Zm7.2,0a3.59,3.59,0,1,0-3.59-3.59A3.59,3.59,0,0,0,72,277.19Zm-.15-10.79a3.45,3.45,0,1,0-3.45,3.45A3.44,3.44,0,0,0,71.85,266.4ZM36,277.19a3.59,3.59,0,1,0-3.59-3.59A3.59,3.59,0,0,0,36,277.19Zm21.6,0A3.59,3.59,0,1,0,54,273.6,3.59,3.59,0,0,0,57.6,277.19ZM43.05,266.4a3.45,3.45,0,1,0-3.45,3.45A3.44,3.44,0,0,0,43.05,266.4Zm.15,10.79a3.59,3.59,0,1,0-3.59-3.59A3.59,3.59,0,0,0,43.2,277.19ZM1.26,208.8a2.34,2.34,0,1,0,2.34-2.34A2.34,2.34,0,0,0,1.26,208.8Zm49,57.6a3.45,3.45,0,1,0-3.45,3.45A3.44,3.44,0,0,0,50.25,266.4Zm.15,10.79a3.59,3.59,0,1,0-3.59-3.59A3.59,3.59,0,0,0,50.4,277.19ZM46.8,192.3a2.1,2.1,0,1,0,2.1,2.1A2.1,2.1,0,0,0,46.8,192.3Zm10.8-7.08a2,2,0,1,0,2,2A2,2,0,0,0,57.6,185.22Zm10.8,7.08a2.1,2.1,0,1,0,2.1,2.1A2.1,2.1,0,0,0,68.4,192.3Zm-3.6-7.08a2,2,0,1,0,2,2A2,2,0,0,0,64.8,185.22Zm-3.6,7.08a2.1,2.1,0,1,0,2.1,2.1A2.1,2.1,0,0,0,61.2,192.3Zm-7.2,0a2.1,2.1,0,1,0,2.1,2.1A2.1,2.1,0,0,0,54,192.3Zm-3.6-7.08a2,2,0,1,0,2,2A2,2,0,0,0,50.4,185.22Zm25.2,7.08a2.1,2.1,0,1,0,2.1,2.1A2.1,2.1,0,0,0,75.6,192.3Zm10.8-7.08a2,2,0,1,0,2,2A2,2,0,0,0,86.4,185.22Zm-3.6,7.08a2.1,2.1,0,1,0,2.1,2.1A2.1,2.1,0,0,0,82.8,192.3Zm-3.75,74.1a3.45,3.45,0,1,0-3.45,3.45A3.44,3.44,0,0,0,79.05,266.4Zm-7-81.18a2,2,0,1,0,2,2A2,2,0,0,0,72,185.22Zm7.2,0a2,2,0,1,0,2,2A2,2,0,0,0,79.2,185.22ZM32.4,192.3a2.1,2.1,0,1,0,2.1,2.1A2.1,2.1,0,0,0,32.4,192.3Zm-14.4,0a2.1,2.1,0,1,0,2.1,2.1A2.1,2.1,0,0,0,18,192.3Zm-3.6-7.08a2,2,0,1,0,2,2A2,2,0,0,0,14.4,185.22Zm-7.2,0a2,2,0,1,0,2,2A2,2,0,0,0,7.2,185.22Zm14.4,0a2,2,0,1,0,2,2A2,2,0,0,0,21.6,185.22ZM10.8,192.3a2.1,2.1,0,1,0,2.1,2.1A2.1,2.1,0,0,0,10.8,192.3Zm14.4,0a2.1,2.1,0,1,0,2.1,2.1A2.1,2.1,0,0,0,25.2,192.3Zm64.8,0a2.1,2.1,0,1,0,2.1,2.1A2.1,2.1,0,0,0,90,192.3Zm-54-7.08a2,2,0,1,0,2,2A2,2,0,0,0,36,185.22Zm-7.2,0a2,2,0,1,0,2,2A2,2,0,0,0,28.8,185.22ZM3.6,196.5a2.1,2.1,0,1,0-2.1-2.1A2.1,2.1,0,0,0,3.6,196.5Zm39.6-11.28a2,2,0,1,0,2,2A2,2,0,0,0,43.2,185.22Zm36,92a3.59,3.59,0,1,0-3.59-3.59A3.59,3.59,0,0,0,79.2,277.19ZM201.45,266.4a3.45,3.45,0,1,0-3.45,3.45A3.44,3.44,0,0,0,201.45,266.4ZM187.2,277.19a3.59,3.59,0,1,0-3.59-3.59A3.59,3.59,0,0,0,187.2,277.19Zm7.05-10.79a3.45,3.45,0,1,0-3.45,3.45A3.44,3.44,0,0,0,194.25,266.4Zm.15,10.79a3.59,3.59,0,1,0-3.59-3.59A3.59,3.59,0,0,0,194.4,277.19Zm7.2,0A3.59,3.59,0,1,0,198,273.6,3.59,3.59,0,0,0,201.6,277.19Zm-36,0A3.59,3.59,0,1,0,162,273.6,3.59,3.59,0,0,0,165.6,277.19Zm43.05-10.79a3.45,3.45,0,1,0-3.45,3.45A3.44,3.44,0,0,0,208.65,266.4Zm-21.6,0a3.45,3.45,0,1,0-3.45,3.45A3.44,3.44,0,0,0,187.05,266.4Zm-14.4,0a3.45,3.45,0,1,0-3.45,3.45A3.44,3.44,0,0,0,172.65,266.4Zm.15,10.79a3.59,3.59,0,1,0-3.59-3.59A3.59,3.59,0,0,0,172.8,277.19Zm7.2,0a3.59,3.59,0,1,0-3.59-3.59A3.59,3.59,0,0,0,180,277.19Zm-.15-10.79a3.45,3.45,0,1,0-3.45,3.45A3.44,3.44,0,0,0,179.85,266.4Zm29,10.79a3.59,3.59,0,1,0-3.59-3.59A3.59,3.59,0,0,0,208.8,277.19Zm28.8,0A3.59,3.59,0,1,0,234,273.6,3.59,3.59,0,0,0,237.6,277.19Zm7.05-10.79a3.45,3.45,0,1,0-3.45,3.45A3.44,3.44,0,0,0,244.65,266.4Zm-28.8,0a3.45,3.45,0,1,0-3.45,3.45A3.44,3.44,0,0,0,215.85,266.4Zm29,10.79a3.59,3.59,0,1,0-3.59-3.59A3.59,3.59,0,0,0,244.8,277.19Zm-7.35-10.79a3.45,3.45,0,1,0-3.45,3.45A3.44,3.44,0,0,0,237.45,266.4Zm14.4,0a3.45,3.45,0,1,0-3.45,3.45A3.44,3.44,0,0,0,251.85,266.4ZM216,277.19a3.59,3.59,0,1,0-3.59-3.59A3.59,3.59,0,0,0,216,277.19Zm7.05-10.79a3.45,3.45,0,1,0-3.45,3.45A3.44,3.44,0,0,0,223.05,266.4Zm7.35,10.79a3.59,3.59,0,1,0-3.59-3.59A3.59,3.59,0,0,0,230.4,277.19Zm-.15-10.79a3.45,3.45,0,1,0-3.45,3.45A3.44,3.44,0,0,0,230.25,266.4Zm-7.05,10.79a3.59,3.59,0,1,0-3.59-3.59A3.59,3.59,0,0,0,223.2,277.19ZM165.45,266.4a3.45,3.45,0,1,0-3.45,3.45A3.44,3.44,0,0,0,165.45,266.4ZM108,277.19a3.59,3.59,0,1,0-3.59-3.59A3.59,3.59,0,0,0,108,277.19Zm-.15-10.79a3.45,3.45,0,1,0-3.45,3.45A3.44,3.44,0,0,0,107.85,266.4Zm7.35,10.79a3.59,3.59,0,1,0-3.59-3.59A3.59,3.59,0,0,0,115.2,277.19Zm-14.4,0a3.59,3.59,0,1,0-3.59-3.59A3.59,3.59,0,0,0,100.8,277.19Zm14.25-10.79a3.45,3.45,0,1,0-3.45,3.45A3.44,3.44,0,0,0,115.05,266.4ZM86.4,277.19a3.59,3.59,0,1,0-3.59-3.59A3.59,3.59,0,0,0,86.4,277.19Zm35.85-10.79a3.45,3.45,0,1,0-3.45,3.45A3.44,3.44,0,0,0,122.25,266.4Zm-36,0a3.45,3.45,0,1,0-3.45,3.45A3.44,3.44,0,0,0,86.25,266.4Zm7.2,0A3.45,3.45,0,1,0,90,269.85,3.44,3.44,0,0,0,93.45,266.4Zm.15,10.79A3.59,3.59,0,1,0,90,273.6,3.59,3.59,0,0,0,93.6,277.19Zm7.05-10.79a3.45,3.45,0,1,0-3.45,3.45A3.44,3.44,0,0,0,100.65,266.4Zm50.55,10.79a3.59,3.59,0,1,0-3.59-3.59A3.59,3.59,0,0,0,151.2,277.19Zm100.8,0a3.59,3.59,0,1,0-3.59-3.59A3.59,3.59,0,0,0,252,277.19Zm-129.6,0a3.59,3.59,0,1,0-3.59-3.59A3.59,3.59,0,0,0,122.4,277.19Zm28.65-10.79a3.45,3.45,0,1,0-3.45,3.45A3.44,3.44,0,0,0,151.05,266.4Zm7.2,0a3.45,3.45,0,1,0-3.45,3.45A3.44,3.44,0,0,0,158.25,266.4Zm.15,10.79a3.59,3.59,0,1,0-3.59-3.59A3.59,3.59,0,0,0,158.4,277.19Zm-14.4,0a3.59,3.59,0,1,0-3.59-3.59A3.59,3.59,0,0,0,144,277.19Zm-14.4,0A3.59,3.59,0,1,0,126,273.6,3.59,3.59,0,0,0,129.6,277.19Zm-.15-10.79a3.45,3.45,0,1,0-3.45,3.45A3.44,3.44,0,0,0,129.45,266.4Zm7.35,10.79a3.59,3.59,0,1,0-3.59-3.59A3.59,3.59,0,0,0,136.8,277.19Zm-.15-10.79a3.45,3.45,0,1,0-3.45,3.45A3.44,3.44,0,0,0,136.65,266.4Zm7.2,0a3.45,3.45,0,1,0-3.45,3.45A3.44,3.44,0,0,0,143.85,266.4Zm105.93-64.8a2.22,2.22,0,1,0,2.22-2.22A2.23,2.23,0,0,0,249.78,201.6Zm23.82-100a.82.82,0,1,0-.82-.82A.82.82,0,0,0,273.6,101.62Zm0-14.56a.66.66,0,1,0-.66-.66A.67.67,0,0,0,273.6,87.06Zm0,29.12a1,1,0,1,0-1-1A1,1,0,0,0,273.6,116.18ZM270,152.64a1.44,1.44,0,1,0-1.44-1.44A1.45,1.45,0,0,0,270,152.64Zm3.6,7.3a1.54,1.54,0,1,0-1.54-1.54A1.54,1.54,0,0,0,273.6,159.94Zm0-14.6a1.34,1.34,0,1,0-1.34-1.34A1.34,1.34,0,0,0,273.6,145.34Zm0-72.82a.52.52,0,1,0-.52-.52A.52.52,0,0,0,273.6,72.52ZM270,178.12a1.88,1.88,0,1,0,1.88,1.88A1.88,1.88,0,0,0,270,178.12Zm0-10.86a1.66,1.66,0,1,0-1.66-1.66A1.66,1.66,0,0,0,270,167.26ZM273.6,29a.18.18,0,1,0-.18-.18A.18.18,0,0,0,273.6,29Zm0,14.5a.28.28,0,1,0-.28-.28A.29.29,0,0,0,273.6,43.48Zm0,14.52a.4.4,0,1,0-.4-.4A.4.4,0,0,0,273.6,58Zm0,72.76a1.16,1.16,0,1,0-1.16-1.16A1.16,1.16,0,0,0,273.6,130.76Zm3.6-21.86a.9.9,0,1,0-.9-.9A.9.9,0,0,0,277.2,108.9Zm0-14.56a.74.74,0,1,0-.74-.74A.74.74,0,0,0,277.2,94.34ZM262.8,138a1.24,1.24,0,1,0-1.24-1.24A1.25,1.25,0,0,0,262.8,138Zm14.4-14.58a1.06,1.06,0,1,0-1.06-1.06A1.07,1.07,0,0,0,277.2,123.46Zm0,14.58A1.24,1.24,0,1,0,276,136.8,1.25,1.25,0,0,0,277.2,138Zm0-101.82A.22.22,0,1,0,277,36,.22.22,0,0,0,277.2,36.22Zm0,29a.46.46,0,1,0-.46-.46A.47.47,0,0,0,277.2,65.26Zm0-43.52a.14.14,0,1,0-.14-.14A.14.14,0,0,0,277.2,21.74Zm.08-14.54a.08.08,0,1,0-.08.08A.09.09,0,0,0,277.28,7.2Zm-.08,43.52a.32.32,0,1,0-.32-.32A.32.32,0,0,0,277.2,50.72Zm-3.6,123.84a1.76,1.76,0,1,0-1.76-1.76A1.76,1.76,0,0,0,273.6,174.56Zm-7.2-72.94a.82.82,0,1,0-.82-.82A.82.82,0,0,0,266.4,101.62Zm0-14.56a.66.66,0,1,0-.66-.66A.67.67,0,0,0,266.4,87.06Zm10.8,65.58a1.44,1.44,0,1,0-1.44-1.44A1.45,1.45,0,0,0,277.2,152.64ZM266.4,72.52a.52.52,0,1,0-.52-.52A.52.52,0,0,0,266.4,72.52Zm0-14.52a.4.4,0,1,0-.4-.4A.4.4,0,0,0,266.4,58Zm3.6,80a1.24,1.24,0,1,0-1.24-1.24A1.25,1.25,0,0,0,270,138Zm-3.6-21.86a1,1,0,1,0-1-1A1,1,0,0,0,266.4,116.18Zm0-87.2a.18.18,0,1,0-.18-.18A.18.18,0,0,0,266.4,29Zm0,116.36a1.34,1.34,0,1,0-1.34-1.34A1.34,1.34,0,0,0,266.4,145.34Zm-3.6,21.92a1.66,1.66,0,1,0-1.66-1.66A1.66,1.66,0,0,0,262.8,167.26Zm0-14.62a1.44,1.44,0,1,0-1.44-1.44A1.45,1.45,0,0,0,262.8,152.64Zm0,25.48a1.88,1.88,0,1,0,1.88,1.88A1.88,1.88,0,0,0,262.8,178.12Zm3.6-134.64a.28.28,0,1,0-.28-.28A.29.29,0,0,0,266.4,43.48Zm0,87.28a1.16,1.16,0,1,0-1.16-1.16A1.16,1.16,0,0,0,266.4,130.76ZM270,94.34a.74.74,0,1,0-.74-.74A.74.74,0,0,0,270,94.34Zm0-14.56a.58.58,0,1,0-.58-.58A.58.58,0,0,0,270,79.78Zm0,43.68a1.06,1.06,0,1,0-1.06-1.06A1.07,1.07,0,0,0,270,123.46Zm0-14.56a.9.9,0,1,0-.9-.9A.9.9,0,0,0,270,108.9Zm0-43.64a.46.46,0,1,0-.46-.46A.47.47,0,0,0,270,65.26Zm.08-58.06a.08.08,0,1,0-.08.08A.09.09,0,0,0,270.08,7.2ZM270,21.74a.14.14,0,1,0-.14-.14A.14.14,0,0,0,270,21.74Zm0,29a.32.32,0,1,0-.32-.32A.32.32,0,0,0,270,50.72Zm-3.6,123.84a1.76,1.76,0,1,0-1.76-1.76A1.76,1.76,0,0,0,266.4,174.56Zm0-14.62a1.54,1.54,0,1,0-1.54-1.54A1.54,1.54,0,0,0,266.4,159.94ZM270,36.22a.22.22,0,1,0-.22-.22A.22.22,0,0,0,270,36.22Zm7.2,43.56a.58.58,0,1,0-.58-.58A.58.58,0,0,0,277.2,79.78Zm9.26,78.62a1.54,1.54,0,0,0,1.54,1.54v-3.08A1.54,1.54,0,0,0,286.46,158.4Zm-.94,57.6a2.48,2.48,0,0,0,2.48,2.48v-5A2.48,2.48,0,0,0,285.52,216Zm1.32-86.4a1.16,1.16,0,0,0,1.16,1.16v-2.32A1.16,1.16,0,0,0,286.84,129.6Zm-.6,43.2a1.76,1.76,0,0,0,1.76,1.76V171A1.76,1.76,0,0,0,286.24,172.8Zm-.46,28.8a2.23,2.23,0,0,0,2.22,2.22v-4.44A2.23,2.23,0,0,0,285.78,201.6Zm.24-14.4a2,2,0,0,0,2,2v-4A2,2,0,0,0,286,187.2Zm.64-43.2a1.34,1.34,0,0,0,1.34,1.34v-2.68A1.34,1.34,0,0,0,286.66,144Zm-2.26,34.12a1.88,1.88,0,1,0,1.88,1.88A1.88,1.88,0,0,0,284.4,178.12ZM287.48,72a.52.52,0,0,0,.52.52v-1A.52.52,0,0,0,287.48,72Zm-.3,28.8a.82.82,0,0,0,.82.82V100A.82.82,0,0,0,287.18,100.8ZM287,115.2a1,1,0,0,0,1,1v-2A1,1,0,0,0,287,115.2Zm.32-28.8a.67.67,0,0,0,.66.66V85.74A.67.67,0,0,0,287.34,86.4Zm-2.08,144a2.74,2.74,0,0,0,2.74,2.74v-5.48A2.74,2.74,0,0,0,285.26,230.4Zm-18.86,2.74a2.74,2.74,0,1,0-2.74-2.74A2.74,2.74,0,0,0,266.4,233.14ZM263.92,216a2.48,2.48,0,1,0,2.48-2.48A2.48,2.48,0,0,0,263.92,216Zm1.48,7.2a2.6,2.6,0,1,0-2.6,2.6A2.61,2.61,0,0,0,265.4,223.2Zm7.2,0a2.6,2.6,0,1,0-2.6,2.6A2.61,2.61,0,0,0,272.6,223.2Zm11.8-55.94a1.66,1.66,0,1,0-1.66-1.66A1.66,1.66,0,0,0,284.4,167.26Zm-25.2,65.88a2.74,2.74,0,1,0-2.74-2.74A2.74,2.74,0,0,0,259.2,233.14Zm18-65.88a1.66,1.66,0,1,0-1.66-1.66A1.66,1.66,0,0,0,277.2,167.26Zm7.51,91.94a3.29,3.29,0,0,0,3.29,3.29v-6.58A3.29,3.29,0,0,0,284.71,259.2Zm-4.91-36a2.6,2.6,0,1,0-2.6,2.6A2.61,2.61,0,0,0,279.8,223.2Zm-3.72-7.2a2.48,2.48,0,1,0-2.48,2.48A2.48,2.48,0,0,0,276.08,216Zm-2.48,17.14a2.74,2.74,0,1,0-2.74-2.74A2.74,2.74,0,0,0,273.6,233.14ZM285,244.8a3,3,0,0,0,3,3v-6A3,3,0,0,0,285,244.8ZM280.8,101.62a.82.82,0,1,0-.82-.82A.82.82,0,0,0,280.8,101.62Zm0,14.56a1,1,0,1,0-1-1A1,1,0,0,0,280.8,116.18Zm0,43.76a1.54,1.54,0,1,0-1.54-1.54A1.54,1.54,0,0,0,280.8,159.94Zm0-14.6a1.34,1.34,0,1,0-1.34-1.34A1.34,1.34,0,0,0,280.8,145.34Zm0-14.58a1.16,1.16,0,1,0-1.16-1.16A1.16,1.16,0,0,0,280.8,130.76Zm0-43.7a.66.66,0,1,0-.66-.66A.67.67,0,0,0,280.8,87.06Zm-3.6,91.06a1.88,1.88,0,1,0,1.88,1.88A1.88,1.88,0,0,0,277.2,178.12Zm3.6-105.6a.52.52,0,1,0-.52-.52A.52.52,0,0,0,280.8,72.52Zm0-29a.28.28,0,1,0-.28-.28A.29.29,0,0,0,280.8,43.48Zm0,14.52a.4.4,0,1,0-.4-.4A.4.4,0,0,0,280.8,58Zm0-29a.18.18,0,1,0-.18-.18A.18.18,0,0,0,280.8,29Zm3.6,79.92a.9.9,0,1,0-.9-.9A.9.9,0,0,0,284.4,108.9Zm0,43.74A1.44,1.44,0,1,0,283,151.2,1.45,1.45,0,0,0,284.4,152.64Zm0-58.3a.74.74,0,1,0-.74-.74A.74.74,0,0,0,284.4,94.34Zm-3.6,80.22A1.76,1.76,0,1,0,279,172.8,1.76,1.76,0,0,0,280.8,174.56Zm3.6-51.1a1.06,1.06,0,1,0-1.06-1.06A1.07,1.07,0,0,0,284.4,123.46Zm0,14.58a1.24,1.24,0,1,0-1.24-1.24A1.25,1.25,0,0,0,284.4,138Zm0-58.26a.58.58,0,1,0-.58-.58A.58.58,0,0,0,284.4,79.78Zm0-58a.14.14,0,1,0-.14-.14A.14.14,0,0,0,284.4,21.74Zm.08-14.54a.08.08,0,1,0-.08.08A.09.09,0,0,0,284.48,7.2Zm-.08,58.06a.46.46,0,1,0-.46-.46A.47.47,0,0,0,284.4,65.26Zm0-29a.22.22,0,1,0-.22-.22A.22.22,0,0,0,284.4,36.22Zm0,14.5a.32.32,0,1,0-.32-.32A.32.32,0,0,0,284.4,50.72ZM234,108.9a.9.9,0,1,0-.9-.9A.9.9,0,0,0,234,108.9ZM244.8,58a.4.4,0,1,0-.4-.4A.4.4,0,0,0,244.8,58Zm0,14.52a.52.52,0,1,0-.52-.52A.52.52,0,0,0,244.8,72.52Zm0-43.54a.18.18,0,1,0-.18-.18A.18.18,0,0,0,244.8,29Zm0,87.2a1,1,0,1,0-1-1A1,1,0,0,0,244.8,116.18Zm0-72.7a.28.28,0,1,0-.28-.28A.29.29,0,0,0,244.8,43.48Zm0,58.14a.82.82,0,1,0-.82-.82A.82.82,0,0,0,244.8,101.62Zm0-14.56a.66.66,0,1,0-.66-.66A.67.67,0,0,0,244.8,87.06Zm-3.6,91.06a1.88,1.88,0,1,0,1.88,1.88A1.88,1.88,0,0,0,241.2,178.12Zm0-40.08A1.24,1.24,0,1,0,240,136.8,1.25,1.25,0,0,0,241.2,138Zm0-14.58a1.06,1.06,0,1,0-1.06-1.06A1.07,1.07,0,0,0,241.2,123.46Zm21.6,0a1.06,1.06,0,1,0-1.06-1.06A1.07,1.07,0,0,0,262.8,123.46Zm-21.6,43.8a1.66,1.66,0,1,0-1.66-1.66A1.66,1.66,0,0,0,241.2,167.26Zm7.2-72.92a.74.74,0,1,0-.74-.74A.74.74,0,0,0,248.4,94.34Zm0-29.08a.46.46,0,1,0-.46-.46A.47.47,0,0,0,248.4,65.26Zm0-14.54a.32.32,0,1,0-.32-.32A.32.32,0,0,0,248.4,50.72Zm-3.6,80a1.16,1.16,0,1,0-1.16-1.16A1.16,1.16,0,0,0,244.8,130.76Zm-3.6-21.86a.9.9,0,1,0-.9-.9A.9.9,0,0,0,241.2,108.9Zm7.2-72.68a.22.22,0,1,0-.22-.22A.22.22,0,0,0,248.4,36.22ZM221,201.6a2.22,2.22,0,1,0,2.22-2.22A2.23,2.23,0,0,0,221,201.6Zm23.82-56.26a1.34,1.34,0,1,0-1.34-1.34A1.34,1.34,0,0,0,244.8,145.34Zm0,14.6a1.54,1.54,0,1,0-1.54-1.54A1.54,1.54,0,0,0,244.8,159.94ZM248.48,7.2a.08.08,0,1,0-.08.08A.09.09,0,0,0,248.48,7.2ZM244.8,174.56A1.76,1.76,0,1,0,243,172.8,1.76,1.76,0,0,0,244.8,174.56Zm3.6-152.82a.14.14,0,1,0-.14-.14A.14.14,0,0,0,248.4,21.74Zm-7.2,58a.58.58,0,1,0-.58-.58A.58.58,0,0,0,241.2,79.78ZM234,178.12a1.88,1.88,0,1,0,1.88,1.88A1.88,1.88,0,0,0,234,178.12ZM237.6,29a.18.18,0,1,0-.18-.18A.18.18,0,0,0,237.6,29Zm0,14.5a.28.28,0,1,0-.28-.28A.29.29,0,0,0,237.6,43.48Zm0,14.52a.4.4,0,1,0-.4-.4A.4.4,0,0,0,237.6,58Zm0,29.06a.66.66,0,1,0-.66-.66A.67.67,0,0,0,237.6,87.06Zm0-14.54a.52.52,0,1,0-.52-.52A.52.52,0,0,0,237.6,72.52Zm0,29.1a.82.82,0,1,0-.82-.82A.82.82,0,0,0,237.6,101.62ZM234,123.46a1.06,1.06,0,1,0-1.06-1.06A1.07,1.07,0,0,0,234,123.46ZM256.72,216a2.48,2.48,0,1,0,2.48-2.48A2.48,2.48,0,0,0,256.72,216ZM234,152.64a1.44,1.44,0,1,0-1.44-1.44A1.45,1.45,0,0,0,234,152.64Zm7.2-58.3a.74.74,0,1,0-.74-.74A.74.74,0,0,0,241.2,94.34ZM234,167.26a1.66,1.66,0,1,0-1.66-1.66A1.66,1.66,0,0,0,234,167.26ZM234,138a1.24,1.24,0,1,0-1.24-1.24A1.25,1.25,0,0,0,234,138Zm3.6-21.86a1,1,0,1,0-1-1A1,1,0,0,0,237.6,116.18Zm3.6-65.46a.32.32,0,1,0-.32-.32A.32.32,0,0,0,241.2,50.72Zm.08-43.52a.08.08,0,1,0-.08.08A.09.09,0,0,0,241.28,7.2Zm-.08,58.06a.46.46,0,1,0-.46-.46A.47.47,0,0,0,241.2,65.26Zm7.2,43.64a.9.9,0,1,0-.9-.9A.9.9,0,0,0,248.4,108.9Zm-7.2-72.68A.22.22,0,1,0,241,36,.22.22,0,0,0,241.2,36.22Zm-3.6,109.12a1.34,1.34,0,1,0-1.34-1.34A1.34,1.34,0,0,0,237.6,145.34Zm3.6-123.6a.14.14,0,1,0-.14-.14A.14.14,0,0,0,241.2,21.74Zm-3.6,109a1.16,1.16,0,1,0-1.16-1.16A1.16,1.16,0,0,0,237.6,130.76Zm0,43.8a1.76,1.76,0,1,0-1.76-1.76A1.76,1.76,0,0,0,237.6,174.56Zm0-14.62a1.54,1.54,0,1,0-1.54-1.54A1.54,1.54,0,0,0,237.6,159.94Zm3.6-7.3a1.44,1.44,0,1,0-1.44-1.44A1.45,1.45,0,0,0,241.2,152.64Zm18-80.12a.52.52,0,1,0-.52-.52A.52.52,0,0,0,259.2,72.52Zm0-43.54a.18.18,0,1,0-.18-.18A.18.18,0,0,0,259.2,29Zm0,29a.4.4,0,1,0-.4-.4A.4.4,0,0,0,259.2,58Zm0,29.06a.66.66,0,1,0-.66-.66A.67.67,0,0,0,259.2,87.06Zm0,14.56a.82.82,0,1,0-.82-.82A.82.82,0,0,0,259.2,101.62Zm0,14.56a1,1,0,1,0-1-1A1,1,0,0,0,259.2,116.18ZM255.6,138a1.24,1.24,0,1,0-1.24-1.24A1.25,1.25,0,0,0,255.6,138Zm3.6-94.56a.28.28,0,1,0-.28-.28A.29.29,0,0,0,259.2,43.48Zm0,87.28A1.16,1.16,0,1,0,258,129.6,1.16,1.16,0,0,0,259.2,130.76Zm-3.6,21.88a1.44,1.44,0,1,0-1.44-1.44A1.45,1.45,0,0,0,255.6,152.64Zm0,25.48a1.88,1.88,0,1,0,1.88,1.88A1.88,1.88,0,0,0,255.6,178.12Zm0-10.86a1.66,1.66,0,1,0-1.66-1.66A1.66,1.66,0,0,0,255.6,167.26Zm7.2-116.54a.32.32,0,1,0-.32-.32A.32.32,0,0,0,262.8,50.72Zm-3.6,94.62a1.34,1.34,0,1,0-1.34-1.34A1.34,1.34,0,0,0,259.2,145.34Zm3.6-65.56a.58.58,0,1,0-.58-.58A.58.58,0,0,0,262.8,79.78Zm0,29.12a.9.9,0,1,0-.9-.9A.9.9,0,0,0,262.8,108.9Zm-7.2,14.56a1.06,1.06,0,1,0-1.06-1.06A1.07,1.07,0,0,0,255.6,123.46Zm7.2-29.12a.74.74,0,1,0-.74-.74A.74.74,0,0,0,262.8,94.34Zm0-29.08a.46.46,0,1,0-.46-.46A.47.47,0,0,0,262.8,65.26Zm-3.6,109.3a1.76,1.76,0,1,0-1.76-1.76A1.76,1.76,0,0,0,259.2,174.56Zm3.6-138.34a.22.22,0,1,0-.22-.22A.22.22,0,0,0,262.8,36.22Zm-3.6,123.72a1.54,1.54,0,1,0-1.54-1.54A1.54,1.54,0,0,0,259.2,159.94ZM262.88,7.2a.08.08,0,1,0-.08.08A.09.09,0,0,0,262.88,7.2Zm-.08,14.54a.14.14,0,1,0-.14-.14A.14.14,0,0,0,262.8,21.74ZM252,72.52a.52.52,0,1,0-.52-.52A.52.52,0,0,0,252,72.52ZM252,58a.4.4,0,1,0-.4-.4A.4.4,0,0,0,252,58Zm-3.6,65.46a1.06,1.06,0,1,0-1.06-1.06A1.07,1.07,0,0,0,248.4,123.46ZM252,29a.18.18,0,1,0-.18-.18A.18.18,0,0,0,252,29Zm0,87.2a1,1,0,1,0-1-1A1,1,0,0,0,252,116.18Zm0-29.12a.66.66,0,1,0-.66-.66A.67.67,0,0,0,252,87.06Zm0,14.56a.82.82,0,1,0-.82-.82A.82.82,0,0,0,252,101.62Zm-3.6,51A1.44,1.44,0,1,0,247,151.2,1.45,1.45,0,0,0,248.4,152.64ZM252,43.48a.28.28,0,1,0-.28-.28A.29.29,0,0,0,252,43.48ZM248.4,138a1.24,1.24,0,1,0-1.24-1.24A1.25,1.25,0,0,0,248.4,138Zm0,40.08a1.88,1.88,0,1,0,1.88,1.88A1.88,1.88,0,0,0,248.4,178.12Zm0-10.86a1.66,1.66,0,1,0-1.66-1.66A1.66,1.66,0,0,0,248.4,167.26ZM255.68,7.2a.08.08,0,1,0-.08.08A.09.09,0,0,0,255.68,7.2Zm-.08,43.52a.32.32,0,1,0-.32-.32A.32.32,0,0,0,255.6,50.72Zm0,14.54a.46.46,0,1,0-.46-.46A.47.47,0,0,0,255.6,65.26Zm0,14.52a.58.58,0,1,0-.58-.58A.58.58,0,0,0,255.6,79.78Zm0,14.56a.74.74,0,1,0-.74-.74A.74.74,0,0,0,255.6,94.34Zm0-58.12a.22.22,0,1,0-.22-.22A.22.22,0,0,0,255.6,36.22Zm0-14.48a.14.14,0,1,0-.14-.14A.14.14,0,0,0,255.6,21.74ZM252,159.94a1.54,1.54,0,1,0-1.54-1.54A1.54,1.54,0,0,0,252,159.94Zm3.6-51a.9.9,0,1,0-.9-.9A.9.9,0,0,0,255.6,108.9ZM252,145.34a1.34,1.34,0,1,0-1.34-1.34A1.34,1.34,0,0,0,252,145.34Zm0,29.22a1.76,1.76,0,1,0-1.76-1.76A1.76,1.76,0,0,0,252,174.56Zm0-43.8a1.16,1.16,0,1,0-1.16-1.16A1.16,1.16,0,0,0,252,130.76Zm-3.6-51a.58.58,0,1,0-.58-.58A.58.58,0,0,0,248.4,79.78Zm-133.2,168a3,3,0,1,0-3-3A3,3,0,0,0,115.2,247.79Zm-.74-10.19a2.86,2.86,0,1,0-2.86,2.85A2.86,2.86,0,0,0,114.46,237.6Zm7.2,0a2.86,2.86,0,1,0-2.86,2.85A2.86,2.86,0,0,0,121.66,237.6Zm.74,10.19a3,3,0,1,0-3-3A3,3,0,0,0,122.4,247.79Zm7.2,0a3,3,0,1,0-3-3A3,3,0,0,0,129.6,247.79Zm-.74-10.19a2.86,2.86,0,1,0-2.86,2.85A2.86,2.86,0,0,0,128.86,237.6ZM108,247.79a3,3,0,1,0-3-3A3,3,0,0,0,108,247.79ZM92.86,237.6A2.86,2.86,0,1,0,90,240.45,2.86,2.86,0,0,0,92.86,237.6Zm.74,10.19a3,3,0,1,0-3-3A3,3,0,0,0,93.6,247.79Zm7.2,0a3,3,0,1,0-3-3A3,3,0,0,0,100.8,247.79Zm-.74-10.19a2.86,2.86,0,1,0-2.86,2.85A2.86,2.86,0,0,0,100.06,237.6Zm7.2,0a2.86,2.86,0,1,0-2.86,2.85A2.86,2.86,0,0,0,107.26,237.6Zm57.6,0a2.86,2.86,0,1,0-2.86,2.85A2.86,2.86,0,0,0,164.86,237.6ZM86.4,247.79a3,3,0,1,0-3-3A3,3,0,0,0,86.4,247.79Zm71.26-10.19a2.86,2.86,0,1,0-2.86,2.85A2.86,2.86,0,0,0,157.66,237.6Zm.74,10.19a3,3,0,1,0-3-3A3,3,0,0,0,158.4,247.79ZM136.06,237.6a2.86,2.86,0,1,0-2.86,2.85A2.86,2.86,0,0,0,136.06,237.6Zm36,0a2.86,2.86,0,1,0-2.86,2.85A2.86,2.86,0,0,0,172.06,237.6Zm-6.46,10.19a3,3,0,1,0-3-3A3,3,0,0,0,165.6,247.79Zm7.2,0a3,3,0,1,0-3-3A3,3,0,0,0,172.8,247.79Zm-36,0a3,3,0,1,0-3-3A3,3,0,0,0,136.8,247.79Zm13.66-10.19a2.86,2.86,0,1,0-2.86,2.85A2.86,2.86,0,0,0,150.46,237.6Zm.74,10.19a3,3,0,1,0-3-3A3,3,0,0,0,151.2,247.79Zm-7.2,0a3,3,0,1,0-3-3A3,3,0,0,0,144,247.79Zm-.74-10.19a2.86,2.86,0,1,0-2.86,2.85A2.86,2.86,0,0,0,143.26,237.6Zm-115.2,0a2.86,2.86,0,1,0-2.86,2.85A2.86,2.86,0,0,0,28.06,237.6ZM21.6,247.79a3,3,0,1,0-3-3A3,3,0,0,0,21.6,247.79Zm7.2,0a3,3,0,1,0-3-3A3,3,0,0,0,28.8,247.79Zm7.2,0a3,3,0,1,0-3-3A3,3,0,0,0,36,247.79ZM20.86,237.6A2.86,2.86,0,1,0,18,240.45,2.86,2.86,0,0,0,20.86,237.6Zm14.4,0a2.86,2.86,0,1,0-2.86,2.85A2.86,2.86,0,0,0,35.26,237.6ZM14.4,247.79a3,3,0,1,0-3-3A3,3,0,0,0,14.4,247.79ZM11.92,216a2.48,2.48,0,1,0,2.48-2.48A2.48,2.48,0,0,0,11.92,216Zm-.26,14.4a2.74,2.74,0,1,0,2.74-2.74A2.74,2.74,0,0,0,11.66,230.4Zm30.8,7.2a2.86,2.86,0,1,0-2.86,2.85A2.86,2.86,0,0,0,42.46,237.6ZM8.2,223.2a2.6,2.6,0,1,0,2.6-2.6A2.61,2.61,0,0,0,8.2,223.2ZM8,237.6a2.86,2.86,0,1,0,2.85-2.86A2.84,2.84,0,0,0,8,237.6Zm48.91,0A2.86,2.86,0,1,0,54,240.45,2.86,2.86,0,0,0,56.86,237.6ZM43.2,247.79a3,3,0,1,0-3-3A3,3,0,0,0,43.2,247.79Zm28.8,0a3,3,0,1,0-3-3A3,3,0,0,0,72,247.79Zm7.2,0a3,3,0,1,0-3-3A3,3,0,0,0,79.2,247.79Zm-14.4,0a3,3,0,1,0-3-3A3,3,0,0,0,64.8,247.79ZM78.46,237.6a2.86,2.86,0,1,0-2.86,2.85A2.86,2.86,0,0,0,78.46,237.6Zm-7.2,0a2.86,2.86,0,1,0-2.86,2.85A2.86,2.86,0,0,0,71.26,237.6Zm-7.2,0a2.86,2.86,0,1,0-2.86,2.85A2.86,2.86,0,0,0,64.06,237.6Zm-14.4,0a2.86,2.86,0,1,0-2.86,2.85A2.86,2.86,0,0,0,49.66,237.6Zm.74,10.19a3,3,0,1,0-3-3A3,3,0,0,0,50.4,247.79ZM85.66,237.6a2.86,2.86,0,1,0-2.86,2.85A2.86,2.86,0,0,0,85.66,237.6ZM57.6,247.79a3,3,0,1,0-3-3A3,3,0,0,0,57.6,247.79Zm183.6-41.33a2.34,2.34,0,1,0,2.34,2.34A2.34,2.34,0,0,0,241.2,206.46ZM283,201.6a2.22,2.22,0,1,0-2.22,2.22A2.23,2.23,0,0,0,283,201.6Zm-18.84,0a2.22,2.22,0,1,0,2.22-2.22A2.23,2.23,0,0,0,264.18,201.6Zm15.36,7.2a2.34,2.34,0,1,0-2.34,2.34A2.34,2.34,0,0,0,279.54,208.8ZM270,206.46a2.34,2.34,0,1,0,2.34,2.34A2.34,2.34,0,0,0,270,206.46Zm1.38-4.86a2.22,2.22,0,1,0,2.22-2.22A2.23,2.23,0,0,0,271.38,201.6Zm12.16,28.8a2.74,2.74,0,1,0-2.74,2.74A2.74,2.74,0,0,0,283.54,230.4Zm-.26-14.4a2.48,2.48,0,1,0-2.48,2.48A2.48,2.48,0,0,0,283.28,216Zm-10.42,21.6a2.86,2.86,0,1,0-2.86,2.85A2.86,2.86,0,0,0,272.86,237.6Zm-6.46,10.19a3,3,0,1,0-3-3A3,3,0,0,0,266.4,247.79Zm13.66-10.19a2.86,2.86,0,1,0-2.86,2.85A2.86,2.86,0,0,0,280.06,237.6Zm-6.46,10.19a3,3,0,1,0-3-3A3,3,0,0,0,273.6,247.79Zm10.19-3a3,3,0,1,0-3,3A3,3,0,0,0,283.79,244.8ZM257,201.6a2.22,2.22,0,1,0,2.22-2.22A2.23,2.23,0,0,0,257,201.6Zm-21.6,0a2.22,2.22,0,1,0,2.22-2.22A2.23,2.23,0,0,0,235.38,201.6Zm27.42,4.86a2.34,2.34,0,1,0,2.34,2.34A2.34,2.34,0,0,0,262.8,206.46Zm-36,0a2.34,2.34,0,1,0,2.34,2.34A2.34,2.34,0,0,0,226.8,206.46Zm1.38-4.86a2.22,2.22,0,1,0,2.22-2.22A2.23,2.23,0,0,0,228.18,201.6ZM20.6,223.2a2.6,2.6,0,1,0-2.6,2.6A2.61,2.61,0,0,0,20.6,223.2ZM234,206.46a2.34,2.34,0,1,0,2.34,2.34A2.34,2.34,0,0,0,234,206.46Zm21.6,0a2.34,2.34,0,1,0,2.34,2.34A2.34,2.34,0,0,0,255.6,206.46Zm10.06,31.14a2.86,2.86,0,1,0-2.86,2.85A2.86,2.86,0,0,0,265.66,237.6ZM248.4,206.46a2.34,2.34,0,1,0,2.34,2.34A2.34,2.34,0,0,0,248.4,206.46Zm-5.82-4.86a2.22,2.22,0,1,0,2.22-2.22A2.23,2.23,0,0,0,242.58,201.6ZM234,94.34a.74.74,0,1,0-.74-.74A.74.74,0,0,0,234,94.34Zm10.8,153.45a3,3,0,1,0-3-3A3,3,0,0,0,244.8,247.79ZM200.86,237.6a2.86,2.86,0,1,0-2.86,2.85A2.86,2.86,0,0,0,200.86,237.6Zm.74,10.19a3,3,0,1,0-3-3A3,3,0,0,0,201.6,247.79Zm6.46-10.19a2.86,2.86,0,1,0-2.86,2.85A2.86,2.86,0,0,0,208.06,237.6ZM216,247.79a3,3,0,1,0-3-3A3,3,0,0,0,216,247.79Zm-7.2,0a3,3,0,1,0-3-3A3,3,0,0,0,208.8,247.79Zm6.46-10.19a2.86,2.86,0,1,0-2.86,2.85A2.86,2.86,0,0,0,215.26,237.6ZM194.4,247.79a3,3,0,1,0-3-3A3,3,0,0,0,194.4,247.79Zm-7.94-10.19a2.86,2.86,0,1,0-2.86,2.85A2.86,2.86,0,0,0,186.46,237.6ZM180,247.79a3,3,0,1,0-3-3A3,3,0,0,0,180,247.79Zm13.66-10.19a2.86,2.86,0,1,0-2.86,2.85A2.86,2.86,0,0,0,193.66,237.6Zm-6.46,10.19a3,3,0,1,0-3-3A3,3,0,0,0,187.2,247.79Zm43.2,0a3,3,0,1,0-3-3A3,3,0,0,0,230.4,247.79ZM179.26,237.6a2.86,2.86,0,1,0-2.86,2.85A2.86,2.86,0,0,0,179.26,237.6Zm72,0a2.86,2.86,0,1,0-2.86,2.85A2.86,2.86,0,0,0,251.26,237.6Zm-7.2,0a2.86,2.86,0,1,0-2.86,2.85A2.86,2.86,0,0,0,244.06,237.6ZM252,247.79a3,3,0,1,0-3-3A3,3,0,0,0,252,247.79Zm6.46-10.19a2.86,2.86,0,1,0-2.86,2.85A2.86,2.86,0,0,0,258.46,237.6ZM223.2,247.79a3,3,0,1,0-3-3A3,3,0,0,0,223.2,247.79Zm6.46-10.19a2.86,2.86,0,1,0-2.86,2.85A2.86,2.86,0,0,0,229.66,237.6Zm-7.2,0a2.86,2.86,0,1,0-2.86,2.85A2.86,2.86,0,0,0,222.46,237.6Zm36.74,10.19a3,3,0,1,0-3-3A3,3,0,0,0,259.2,247.79Zm-21.6,0a3,3,0,1,0-3-3A3,3,0,0,0,237.6,247.79Zm-.74-10.19a2.86,2.86,0,1,0-2.86,2.85A2.86,2.86,0,0,0,236.86,237.6ZM119.92,216a2.48,2.48,0,1,0,2.48-2.48A2.48,2.48,0,0,0,119.92,216Zm52.88,17.14a2.74,2.74,0,1,0-2.74-2.74A2.74,2.74,0,0,0,172.8,233.14Zm6.2-9.94a2.6,2.6,0,1,0-2.6,2.6A2.61,2.61,0,0,0,179,223.2Zm1,9.94a2.74,2.74,0,1,0-2.74-2.74A2.74,2.74,0,0,0,180,233.14ZM177.52,216a2.48,2.48,0,1,0,2.48-2.48A2.48,2.48,0,0,0,177.52,216Zm-7.2,0a2.48,2.48,0,1,0,2.48-2.48A2.48,2.48,0,0,0,170.32,216Zm1.48,7.2a2.6,2.6,0,1,0-2.6,2.6A2.61,2.61,0,0,0,171.8,223.2Zm12.92-7.2a2.48,2.48,0,1,0,2.48-2.48A2.48,2.48,0,0,0,184.72,216Zm8.68,7.2a2.6,2.6,0,1,0-2.6,2.6A2.61,2.61,0,0,0,193.4,223.2Zm-1.48-7.2a2.48,2.48,0,1,0,2.48-2.48A2.48,2.48,0,0,0,191.92,216Zm-172.8,0a2.48,2.48,0,1,0,2.48-2.48A2.48,2.48,0,0,0,19.12,216Zm167.08,7.2a2.6,2.6,0,1,0-2.6,2.6A2.61,2.61,0,0,0,186.2,223.2Zm1,9.94a2.74,2.74,0,1,0-2.74-2.74A2.74,2.74,0,0,0,187.2,233.14ZM143,223.2a2.6,2.6,0,1,0-2.6,2.6A2.61,2.61,0,0,0,143,223.2Zm1,9.94a2.74,2.74,0,1,0-2.74-2.74A2.74,2.74,0,0,0,144,233.14ZM148.72,216a2.48,2.48,0,1,0,2.48-2.48A2.48,2.48,0,0,0,148.72,216Zm1.48,7.2a2.6,2.6,0,1,0-2.6,2.6A2.61,2.61,0,0,0,150.2,223.2Zm44.2,9.94a2.74,2.74,0,1,0-2.74-2.74A2.74,2.74,0,0,0,194.4,233.14ZM141.52,216a2.48,2.48,0,1,0,2.48-2.48A2.48,2.48,0,0,0,141.52,216Zm16.88,17.14a2.74,2.74,0,1,0-2.74-2.74A2.74,2.74,0,0,0,158.4,233.14Zm-7.2,0a2.74,2.74,0,1,0-2.74-2.74A2.74,2.74,0,0,0,151.2,233.14Zm13.4-9.94a2.6,2.6,0,1,0-2.6,2.6A2.61,2.61,0,0,0,164.6,223.2Zm-1.48-7.2a2.48,2.48,0,1,0,2.48-2.48A2.48,2.48,0,0,0,163.12,216Zm-5.72,7.2a2.6,2.6,0,1,0-2.6,2.6A2.61,2.61,0,0,0,157.4,223.2Zm-1.48-7.2a2.48,2.48,0,1,0,2.48-2.48A2.48,2.48,0,0,0,155.92,216Zm86.4,0a2.48,2.48,0,1,0,2.48-2.48A2.48,2.48,0,0,0,242.32,216Zm-7.2,0a2.48,2.48,0,1,0,2.48-2.48A2.48,2.48,0,0,0,235.12,216Zm2.48,17.14a2.74,2.74,0,1,0-2.74-2.74A2.74,2.74,0,0,0,237.6,233.14Zm6.2-9.94a2.6,2.6,0,1,0-2.6,2.6A2.61,2.61,0,0,0,243.8,223.2Zm-7.2,0a2.6,2.6,0,1,0-2.6,2.6A2.61,2.61,0,0,0,236.6,223.2Zm-6.2,9.94a2.74,2.74,0,1,0-2.74-2.74A2.74,2.74,0,0,0,230.4,233.14ZM227.92,216a2.48,2.48,0,1,0,2.48-2.48A2.48,2.48,0,0,0,227.92,216ZM251,223.2a2.6,2.6,0,1,0-2.6,2.6A2.61,2.61,0,0,0,251,223.2Zm1,9.94a2.74,2.74,0,1,0-2.74-2.74A2.74,2.74,0,0,0,252,233.14Zm-115.2,0a2.74,2.74,0,1,0-2.74-2.74A2.74,2.74,0,0,0,136.8,233.14ZM249.52,216a2.48,2.48,0,1,0,2.48-2.48A2.48,2.48,0,0,0,249.52,216Zm-4.72,17.14a2.74,2.74,0,1,0-2.74-2.74A2.74,2.74,0,0,0,244.8,233.14Zm-15.4-9.94a2.6,2.6,0,1,0-2.6,2.6A2.61,2.61,0,0,0,229.4,223.2Zm-6.2,9.94a2.74,2.74,0,1,0-2.74-2.74A2.74,2.74,0,0,0,223.2,233.14Zm-15.4-9.94a2.6,2.6,0,1,0-2.6,2.6A2.61,2.61,0,0,0,207.8,223.2Zm-1.48-7.2a2.48,2.48,0,1,0,2.48-2.48A2.48,2.48,0,0,0,206.32,216Zm-7.2,0a2.48,2.48,0,1,0,2.48-2.48A2.48,2.48,0,0,0,199.12,216Zm1.48,7.2a2.6,2.6,0,1,0-2.6,2.6A2.61,2.61,0,0,0,200.6,223.2Zm1,9.94a2.74,2.74,0,1,0-2.74-2.74A2.74,2.74,0,0,0,201.6,233.14Zm7.2,0a2.74,2.74,0,1,0-2.74-2.74A2.74,2.74,0,0,0,208.8,233.14ZM220.72,216a2.48,2.48,0,1,0,2.48-2.48A2.48,2.48,0,0,0,220.72,216Zm1.48,7.2a2.6,2.6,0,1,0-2.6,2.6A2.61,2.61,0,0,0,222.2,223.2Zm-8.68-7.2a2.48,2.48,0,1,0,2.48-2.48A2.48,2.48,0,0,0,213.52,216ZM216,233.14a2.74,2.74,0,1,0-2.74-2.74A2.74,2.74,0,0,0,216,233.14Zm-1-9.94a2.6,2.6,0,1,0-2.6,2.6A2.61,2.61,0,0,0,215,223.2Zm-49.4,9.94a2.74,2.74,0,1,0-2.74-2.74A2.74,2.74,0,0,0,165.6,233.14ZM55.12,216a2.48,2.48,0,1,0,2.48-2.48A2.48,2.48,0,0,0,55.12,216Zm7.2,0a2.48,2.48,0,1,0,2.48-2.48A2.48,2.48,0,0,0,62.32,216Zm14.4,0a2.48,2.48,0,1,0,2.48-2.48A2.48,2.48,0,0,0,76.72,216ZM57.6,233.14a2.74,2.74,0,1,0-2.74-2.74A2.74,2.74,0,0,0,57.6,233.14Zm-1-9.94a2.6,2.6,0,1,0-2.6,2.6A2.61,2.61,0,0,0,56.6,223.2Zm-6.2,9.94a2.74,2.74,0,1,0-2.74-2.74A2.74,2.74,0,0,0,50.4,233.14Zm21.6,0a2.74,2.74,0,1,0-2.74-2.74A2.74,2.74,0,0,0,72,233.14Zm6.2-9.94a2.6,2.6,0,1,0-2.6,2.6A2.61,2.61,0,0,0,78.2,223.2ZM47.92,216a2.48,2.48,0,1,0,2.48-2.48A2.48,2.48,0,0,0,47.92,216Zm21.6,0A2.48,2.48,0,1,0,72,213.52,2.48,2.48,0,0,0,69.52,216ZM71,223.2a2.6,2.6,0,1,0-2.6,2.6A2.61,2.61,0,0,0,71,223.2Zm-6.2,9.94a2.74,2.74,0,1,0-2.74-2.74A2.74,2.74,0,0,0,64.8,233.14Zm-1-9.94a2.6,2.6,0,1,0-2.6,2.6A2.61,2.61,0,0,0,63.8,223.2Zm-28.8,0a2.6,2.6,0,1,0-2.6,2.6A2.61,2.61,0,0,0,35,223.2Zm-6.2,9.94a2.74,2.74,0,1,0-2.74-2.74A2.74,2.74,0,0,0,28.8,233.14ZM26.32,216a2.48,2.48,0,1,0,2.48-2.48A2.48,2.48,0,0,0,26.32,216Zm23.08,7.2a2.6,2.6,0,1,0-2.6,2.6A2.61,2.61,0,0,0,49.4,223.2Zm-27.8,9.94a2.74,2.74,0,1,0-2.74-2.74A2.74,2.74,0,0,0,21.6,233.14Zm6.2-9.94a2.6,2.6,0,1,0-2.6,2.6A2.61,2.61,0,0,0,27.8,223.2ZM40.72,216a2.48,2.48,0,1,0,2.48-2.48A2.48,2.48,0,0,0,40.72,216Zm2.48,17.14a2.74,2.74,0,1,0-2.74-2.74A2.74,2.74,0,0,0,43.2,233.14Zm-1-9.94a2.6,2.6,0,1,0-2.6,2.6A2.61,2.61,0,0,0,42.2,223.2ZM33.52,216A2.48,2.48,0,1,0,36,213.52,2.48,2.48,0,0,0,33.52,216ZM36,233.14a2.74,2.74,0,1,0-2.74-2.74A2.74,2.74,0,0,0,36,233.14Zm99.8-9.94a2.6,2.6,0,1,0-2.6,2.6A2.61,2.61,0,0,0,135.8,223.2Zm-14.4,0a2.6,2.6,0,1,0-2.6,2.6A2.61,2.61,0,0,0,121.4,223.2ZM108,233.14a2.74,2.74,0,1,0-2.74-2.74A2.74,2.74,0,0,0,108,233.14Zm-28.8,0a2.74,2.74,0,1,0-2.74-2.74A2.74,2.74,0,0,0,79.2,233.14ZM112.72,216a2.48,2.48,0,1,0,2.48-2.48A2.48,2.48,0,0,0,112.72,216Zm1.48,7.2a2.6,2.6,0,1,0-2.6,2.6A2.61,2.61,0,0,0,114.2,223.2Zm1,9.94a2.74,2.74,0,1,0-2.74-2.74A2.74,2.74,0,0,0,115.2,233.14Zm14.4,0a2.74,2.74,0,1,0-2.74-2.74A2.74,2.74,0,0,0,129.6,233.14ZM134.32,216a2.48,2.48,0,1,0,2.48-2.48A2.48,2.48,0,0,0,134.32,216ZM122.4,233.14a2.74,2.74,0,1,0-2.74-2.74A2.74,2.74,0,0,0,122.4,233.14Zm6.2-9.94a2.6,2.6,0,1,0-2.6,2.6A2.61,2.61,0,0,0,128.6,223.2Zm-1.48-7.2a2.48,2.48,0,1,0,2.48-2.48A2.48,2.48,0,0,0,127.12,216Zm131.08,7.2a2.6,2.6,0,1,0-2.6,2.6A2.61,2.61,0,0,0,258.2,223.2ZM105.52,216a2.48,2.48,0,1,0,2.48-2.48A2.48,2.48,0,0,0,105.52,216Zm-14.4,0a2.48,2.48,0,1,0,2.48-2.48A2.48,2.48,0,0,0,91.12,216ZM86.4,233.14a2.74,2.74,0,1,0-2.74-2.74A2.74,2.74,0,0,0,86.4,233.14ZM83.92,216a2.48,2.48,0,1,0,2.48-2.48A2.48,2.48,0,0,0,83.92,216Zm1.48,7.2a2.6,2.6,0,1,0-2.6,2.6A2.61,2.61,0,0,0,85.4,223.2Zm7.2,0a2.6,2.6,0,1,0-2.6,2.6A2.61,2.61,0,0,0,92.6,223.2Zm14.4,0a2.6,2.6,0,1,0-2.6,2.6A2.61,2.61,0,0,0,107,223.2Zm-6.2,9.94a2.74,2.74,0,1,0-2.74-2.74A2.74,2.74,0,0,0,100.8,233.14Zm-1-9.94a2.6,2.6,0,1,0-2.6,2.6A2.61,2.61,0,0,0,99.8,223.2ZM98.32,216a2.48,2.48,0,1,0,2.48-2.48A2.48,2.48,0,0,0,98.32,216ZM93.6,233.14a2.74,2.74,0,1,0-2.74-2.74A2.74,2.74,0,0,0,93.6,233.14Z" transform="translate(0)"/>
    </g>
  </g>
</svg>
